<svg width="55" height="49" viewBox="0 0 55 49" fill="none" xmlns="http://www.w3.org/2000/svg">
<path d="M54.1881 0.0227051V33.7692L39.6476 48.3092H0V14.5626L14.5406 0.0227051H54.1881Z" fill="white"/>
<path d="M27.2051 12.4132C29.5549 12.4132 31.8145 13.2721 33.5479 14.8136L33.8867 15.131C35.6587 16.8713 36.6542 19.2317 36.6543 21.6925C36.6543 24.7985 35.2807 28.084 32.6719 31.2355L32.1328 31.8644C31.3445 32.7532 30.5007 33.593 29.6055 34.3781L29.5049 34.4659H34.9775C35.1666 34.4659 35.3485 34.5311 35.4932 34.6476L35.5527 34.7003C35.7051 34.85 35.791 35.0526 35.791 35.2638C35.791 35.4487 35.7259 35.6277 35.6074 35.7697L35.5527 35.8282C35.4003 35.9778 35.1934 36.0616 34.9775 36.0616H19.4326C19.2438 36.0616 19.0616 35.9973 18.917 35.881L18.8574 35.8282C18.705 35.6786 18.6191 35.4751 18.6191 35.2638C18.6192 35.0791 18.6844 34.9008 18.8027 34.7589L18.8574 34.7003C19.0099 34.5507 19.2167 34.4659 19.4326 34.4659H24.9053L24.8047 34.3781C24.1333 33.7892 23.4909 33.1695 22.8789 32.5216L22.2764 31.8644C19.3142 28.5232 17.7559 25.0057 17.7559 21.6925C17.7559 19.3855 18.6308 17.1673 20.2002 15.465L20.5225 15.131C22.2945 13.3906 24.6986 12.4132 27.2051 12.4132ZM27.2051 14.0089C25.2603 14.0089 23.3902 14.72 21.9551 15.9962L21.6738 16.2589C20.2067 17.6999 19.3819 19.6543 19.3818 21.6925C19.3818 24.7425 20.8864 27.5366 22.6094 29.7374C24.3328 31.9387 26.2798 33.5527 27.1738 34.2433L27.2051 34.2677L27.2354 34.2433C28.1292 33.5528 30.0761 31.939 31.7998 29.7374C33.5229 27.5365 35.0283 24.7426 35.0283 21.6925C35.0283 19.7818 34.3033 17.9448 33.0039 16.5353L32.7363 16.2589C31.2692 14.818 29.2796 14.0089 27.2051 14.0089ZM26.3721 17.5822C27.0967 17.4406 27.8448 17.4867 28.543 17.713L28.8389 17.8214C29.521 18.099 30.1162 18.5449 30.5684 19.1134L30.7539 19.3644C31.2227 20.0535 31.4726 20.8639 31.4727 21.6925C31.4727 22.7342 31.0779 23.7362 30.3691 24.505L30.2227 24.6554C29.4224 25.4413 28.3372 25.8829 27.2051 25.8829C26.4665 25.8829 25.7421 25.6955 25.1025 25.34L24.834 25.1769C24.22 24.7739 23.7241 24.2226 23.3936 23.5782L23.2617 23.296C22.9792 22.626 22.879 21.897 22.9688 21.1808L23.0195 20.8751C23.1636 20.1642 23.4921 19.5037 23.9717 18.9572L24.1865 18.7296C24.7088 18.2167 25.3569 17.8472 26.0654 17.6544L26.3721 17.5822ZM27.7197 19.1476C27.2718 19.0601 26.8096 19.0888 26.3779 19.2286L26.1943 19.295C25.7723 19.4667 25.404 19.7428 25.124 20.0948L25.0088 20.2511C24.7187 20.6777 24.5635 21.1793 24.5635 21.6925C24.5635 22.2951 24.7768 22.8762 25.1621 23.338L25.3379 23.5275C25.8333 24.014 26.5049 24.2872 27.2051 24.2872C27.662 24.2872 28.11 24.1714 28.5059 23.9513L28.6719 23.8507C29.0519 23.6013 29.3587 23.2597 29.5635 22.8605L29.6455 22.6857C29.8203 22.2709 29.8817 21.8196 29.8262 21.3761L29.7959 21.1866C29.7067 20.746 29.5022 20.3367 29.2051 19.9982L29.0723 19.8575C28.7028 19.4947 28.2319 19.2476 27.7197 19.1476Z" fill="#BA1515" stroke="#C81717" stroke-width="0.100725"/>
</svg>
