<svg width="55" height="49" viewBox="0 0 55 49" fill="none" xmlns="http://www.w3.org/2000/svg">
<path d="M54.1881 0.420898V34.1674L39.6476 48.7074H0V14.9608L14.5406 0.420898H54.1881Z" fill="white"/>
<path d="M20.2472 20.8149L20.7849 20.2772L20.2472 20.8149ZM18.2914 18.8591L17.7536 19.3968V19.3968L18.2914 18.8591ZM26.4028 33.3076C25.9828 33.3076 25.6424 33.6481 25.6424 34.0681C25.6424 34.488 25.9828 34.8285 26.4028 34.8285V33.3076ZM36.5879 31.9783L35.9727 31.5313V31.5313L36.5879 31.9783ZM35.4663 33.0998L35.0193 32.4846L35.4663 33.0998ZM35.4663 16.7855L35.9133 16.1703V16.1703L35.4663 16.7855ZM36.5879 17.9071L35.9727 18.354V18.354L36.5879 17.9071ZM19.3672 16.7855L18.9202 16.1703V16.1703L19.3672 16.7855ZM16.517 24.9427C16.517 25.3626 16.8574 25.7031 17.2774 25.7031C17.6974 25.7031 18.0379 25.3626 18.0379 24.9427H16.517ZM18.2456 17.9071L17.6304 17.4601L17.6304 17.4601L18.2456 17.9071ZM16.2635 31.2797C15.8435 31.2797 15.503 31.6202 15.503 32.0402C15.503 32.4602 15.8435 32.8006 16.2635 32.8006V31.2797ZM22.3471 32.8006C22.7671 32.8006 23.1075 32.4602 23.1075 32.0402C23.1075 31.6202 22.7671 31.2797 22.3471 31.2797V32.8006ZM16.2635 28.2379C15.8435 28.2379 15.503 28.5784 15.503 28.9984C15.503 29.4184 15.8435 29.7588 16.2635 29.7588V28.2379ZM19.3053 29.7588C19.7253 29.7588 20.0657 29.4184 20.0657 28.9984C20.0657 28.5784 19.7253 28.2379 19.3053 28.2379V29.7588ZM17.9071 18.4748L17.222 18.1447L17.9071 18.4748ZM20.7849 20.2772L18.9521 18.4444L17.8766 19.5198L19.7094 21.3526L20.7849 20.2772ZM35.8814 18.4444L34.0486 20.2771L35.1241 21.3526L36.9569 19.5198L35.8814 18.4444ZM19.7094 21.3526C21.3841 23.0273 22.6931 24.3385 23.8506 25.2217C25.0257 26.1182 26.1337 26.645 27.4168 26.645V25.1241C26.5999 25.1241 25.813 24.8059 24.7732 24.0125C23.7158 23.2058 22.49 21.9822 20.7849 20.2772L19.7094 21.3526ZM34.0486 20.2771C32.3435 21.9822 31.1177 23.2058 30.0603 24.0125C29.0205 24.8059 28.2336 25.1241 27.4168 25.1241V26.645C28.6998 26.645 29.8078 26.1182 30.9829 25.2217C32.1404 24.3385 33.4494 23.0273 35.1241 21.3526L34.0486 20.2771ZM20.7849 20.2772L18.8291 18.3213L17.7536 19.3968L19.7094 21.3526L20.7849 20.2772ZM36.0044 18.3213L34.0486 20.2771L35.1241 21.3526L37.0799 19.3968L36.0044 18.3213ZM26.4028 16.5777H28.4307V15.0568H26.4028V16.5777ZM28.4307 33.3076H26.4028V34.8285H28.4307V33.3076ZM36.7956 24.9427C36.7956 26.8606 36.7946 28.238 36.679 29.3046C36.565 30.3569 36.3469 31.0162 35.9727 31.5313L37.2031 32.4253C37.7971 31.6077 38.0631 30.6502 38.1911 29.4684C38.3176 28.3008 38.3165 26.8267 38.3165 24.9427H36.7956ZM28.4307 34.8285C30.3147 34.8285 31.7889 34.8296 32.9564 34.7031C34.1382 34.575 35.0957 34.3091 35.9133 33.7151L35.0193 32.4846C34.5042 32.8589 33.845 33.077 32.7926 33.191C31.726 33.3066 30.3486 33.3076 28.4307 33.3076V34.8285ZM35.9727 31.5313C35.7069 31.8971 35.3851 32.2188 35.0193 32.4846L35.9133 33.7151C36.4082 33.3555 36.8435 32.9202 37.2031 32.4253L35.9727 31.5313ZM28.4307 16.5777C30.3486 16.5777 31.726 16.5788 32.7926 16.6943C33.845 16.8083 34.5042 17.0265 35.0193 17.4007L35.9133 16.1703C35.0957 15.5763 34.1382 15.3103 32.9564 15.1823C31.7889 15.0558 30.3147 15.0568 28.4307 15.0568V16.5777ZM35.0193 17.4007C35.3851 17.6665 35.7069 17.9882 35.9727 18.354L37.2031 17.4601C36.8435 16.9651 36.4082 16.5299 35.9133 16.1703L35.0193 17.4007ZM26.4028 15.0568C24.5188 15.0568 23.0447 15.0558 21.8771 15.1823C20.6953 15.3103 19.7378 15.5763 18.9202 16.1703L19.8142 17.4007C20.3293 17.0265 20.9886 16.8083 22.0409 16.6943C23.1075 16.5788 24.4849 16.5777 26.4028 16.5777V15.0568ZM18.9202 16.1703C18.4253 16.5299 17.99 16.9651 17.6304 17.4601L18.8609 18.354C19.1267 17.9882 19.4484 17.6665 19.8142 17.4007L18.9202 16.1703ZM16.2635 32.8006H22.3471V31.2797H16.2635V32.8006ZM16.2635 29.7588H19.3053V28.2379H16.2635V29.7588ZM18.0379 24.9427C18.0379 23.2847 18.0384 22.0275 18.1144 21.0208C18.1903 20.0159 18.3379 19.3327 18.5922 18.8049L17.222 18.1447C16.8467 18.9237 16.6793 19.8274 16.5978 20.9062C16.5165 21.9832 16.517 23.3066 16.517 24.9427H18.0379ZM18.5922 18.8049C18.67 18.6433 18.7589 18.4944 18.8609 18.354L17.6304 17.4601C17.4737 17.6758 17.3384 17.9033 17.222 18.1447L18.5922 18.8049ZM18.8291 18.3213L18.4448 17.9371L17.3694 19.0125L17.7536 19.3968L18.8291 18.3213ZM38.3165 24.9427C38.3165 23.3066 38.317 21.9832 38.2357 20.9062C38.1542 19.8274 37.9869 18.9237 37.6115 18.1447L36.2413 18.8049C36.4956 19.3327 36.6432 20.0159 36.7191 21.0208C36.7951 22.0275 36.7956 23.2847 36.7956 24.9427H38.3165ZM37.6115 18.1447C37.4951 17.9033 37.3599 17.6758 37.2031 17.4601L35.9727 18.354C36.0746 18.4944 36.1635 18.6433 36.2413 18.8049L37.6115 18.1447ZM37.0799 19.3968L37.4641 19.0125L36.3887 17.9371L36.0044 18.3213L37.0799 19.3968Z" fill="#C81717"/>
</svg>
