<svg width="55" height="50" viewBox="0 0 55 50" fill="none" xmlns="http://www.w3.org/2000/svg">
<path d="M54.1881 0.913086V34.6596L39.6476 49.1995H0V15.453L14.5406 0.913086H54.1881Z" fill="white"/>
<path d="M33.4464 24.4204V23.8487C33.4464 23.7631 33.4464 23.7204 33.4458 23.6842C33.4067 20.95 31.1997 18.7431 28.4655 18.7039C28.4294 18.7034 28.3866 18.7034 28.301 18.7034H27.7293M37.0196 25.135V24.1345C37.0196 23.2809 37.0196 22.8541 36.9874 22.4943C36.6386 18.5987 33.5512 15.5112 29.6555 15.1625C29.2957 15.1302 28.8689 15.1302 28.0153 15.1302L27.0148 15.1302M23.7583 22.4305C23.3003 23.4813 23.5321 24.7054 24.3427 25.516L26.765 27.9383C27.5755 28.7489 28.7997 28.9807 29.8505 28.5226C30.9013 28.0646 32.1255 28.2964 32.936 29.107L34.4098 30.5807C34.4811 30.6521 34.5168 30.6878 34.5457 30.7192C35.2563 31.4925 35.2563 32.6812 34.5457 33.4544C34.5168 33.4859 34.4811 33.5216 34.4097 33.593L33.514 34.4888C32.7845 35.2182 31.7329 35.5245 30.7259 35.3007C23.8641 33.7758 18.5051 28.4169 16.9803 21.5551C16.7565 20.548 17.0627 19.4964 17.7922 18.767L18.688 17.8712C18.7594 17.7998 18.7951 17.7641 18.8265 17.7352C19.5998 17.0247 20.7884 17.0247 21.5617 17.7352C21.5932 17.7641 21.6289 17.7998 21.7003 17.8712L23.174 19.3449C23.9845 20.1555 24.2164 21.3796 23.7583 22.4305Z" stroke="#C81717" stroke-width="1.51595" stroke-linecap="round"/>
</svg>
