<svg width="26" height="26" viewBox="0 0 26 26" fill="none" xmlns="http://www.w3.org/2000/svg">
<path d="M20.6361 3.65894H5.26901C4.86145 3.65894 4.47058 3.82084 4.18239 4.10903C3.8942 4.39722 3.7323 4.78809 3.7323 5.19565V20.5628C3.7323 20.9703 3.8942 21.3612 4.18239 21.6494C4.47058 21.9376 4.86145 22.0995 5.26901 22.0995H20.6361C21.0437 22.0995 21.4346 21.9376 21.7227 21.6494C22.0109 21.3612 22.1728 20.9703 22.1728 20.5628V5.19565C22.1728 4.78809 22.0109 4.39722 21.7227 4.10903C21.4346 3.82084 21.0437 3.65894 20.6361 3.65894ZM20.6361 20.5628H5.26901V5.19565H20.6361V20.5628ZM16.5696 13.1039C16.641 13.1753 16.6977 13.26 16.7364 13.3533C16.775 13.4466 16.7949 13.5466 16.7949 13.6476C16.7949 13.7485 16.775 13.8485 16.7364 13.9418C16.6977 14.0351 16.641 14.1198 16.5696 14.1912L13.4962 17.2646C13.4248 17.336 13.3401 17.3927 13.2468 17.4314C13.1535 17.47 13.0535 17.4899 12.9526 17.4899C12.8516 17.4899 12.7516 17.47 12.6583 17.4314C12.5651 17.3927 12.4803 17.336 12.409 17.2646L9.33553 14.1912C9.19136 14.047 9.11036 13.8515 9.11036 13.6476C9.11036 13.4437 9.19136 13.2481 9.33553 13.1039C9.47971 12.9598 9.67525 12.8788 9.87915 12.8788C10.083 12.8788 10.2786 12.9598 10.4228 13.1039L12.1842 14.8664V9.03743C12.1842 8.83364 12.2652 8.63821 12.4093 8.49412C12.5534 8.35002 12.7488 8.26907 12.9526 8.26907C13.1563 8.26907 13.3518 8.35002 13.4959 8.49412C13.64 8.63821 13.7209 8.83364 13.7209 9.03743V14.8664L15.4824 13.1039C15.5537 13.0325 15.6385 12.9758 15.7318 12.9372C15.825 12.8985 15.925 12.8786 16.026 12.8786C16.127 12.8786 16.2269 12.8985 16.3202 12.9372C16.4135 12.9758 16.4982 13.0325 16.5696 13.1039Z" fill="#C81717"/>
</svg>
