<svg width="135" height="39" viewBox="0 0 135 39" fill="none" xmlns="http://www.w3.org/2000/svg">
<path d="M7.31056 0.226054C4.55186 1.36677 1.53617 4.63945 0.579013 8.72243C-0.63513 13.9094 4.405 16.0781 4.80885 15.3438C5.28611 14.4968 3.92512 14.2031 3.63141 11.5178C3.26429 8.0616 4.88227 4.1989 6.90409 2.47078C7.27122 2.14036 7.27122 2.58091 7.27122 3.39121C7.27122 4.82563 7.1978 17.8823 7.1978 20.6043C7.1978 24.2834 7.05094 25.4582 6.75724 26.5989C6.46354 27.7763 6.02037 28.5473 6.39011 28.8436C6.75724 29.174 8.37522 28.3664 9.29567 27.0788C10.3997 25.5342 10.8035 23.6593 10.8769 21.5981C10.9504 19.1331 10.9504 15.273 10.9504 13.0283C10.9504 11.0065 10.9871 5.04853 10.9136 1.44282C10.8796 0.669229 8.45127 -0.251212 7.31056 0.226054ZM104.885 17.4391C104.812 19.3508 104.371 20.8586 103.855 21.8892C102.824 23.9477 100.729 24.5745 99.845 21.6322C99.3678 20.0142 99.331 17.3657 99.6982 15.1236C100.065 12.8421 101.059 11.114 102.714 11.2976C104.298 11.4811 105.069 13.579 104.885 17.4391ZM77.3742 29.3183C77.3375 32.4808 76.8602 35.2762 75.7929 36.0865C74.2851 37.2272 72.2266 36.3802 72.6304 34.0647C72.9975 32.0062 74.7624 29.9083 77.3742 27.3332C77.3742 27.3699 77.3742 27.9573 77.3742 29.3183ZM76.9704 17.4391C76.8602 19.1672 76.4197 20.932 75.9398 21.9259C74.9092 23.9844 72.7772 24.6112 71.9302 21.6689C71.3428 19.6471 71.4897 17.072 71.7834 15.4173C72.1872 13.2853 73.1077 11.3343 74.7991 11.3343C76.3803 11.2976 77.1906 13.0991 76.9704 17.4391ZM61.0449 17.4024C60.9348 19.2406 60.5676 20.7852 60.0143 21.9259C58.9837 23.9477 56.8885 24.6112 56.0048 21.6689C55.3439 19.5737 55.5642 16.6681 55.8579 15.1236C56.2617 12.8054 57.2923 11.1874 58.8736 11.3343C60.4575 11.4811 61.2285 13.579 61.0449 17.4024ZM134.014 19.5737C133.61 19.5737 133.427 19.9775 133.277 20.6777C132.763 23.0692 132.21 23.6199 131.512 23.6199C130.739 23.6199 130.005 22.4425 129.821 20.0536C129.674 18.1786 129.711 14.7197 129.894 11.3002C129.931 10.6026 129.748 9.90248 127.836 9.20494C127.026 8.91124 125.851 8.46806 125.261 9.90248C123.606 13.912 122.943 17.1113 122.796 18.3989C122.796 18.4723 122.722 18.4723 122.686 18.3254C122.575 17.2949 122.355 15.4199 122.355 11.447C122.355 10.6734 122.172 10.0126 121.325 9.46193C120.774 9.0948 119.08 8.50477 118.492 9.24165C117.978 9.82905 117.352 11.4497 116.728 13.3981C116.214 14.9426 115.844 16.0099 115.844 16.0099C115.844 16.0099 115.844 11.8168 115.844 10.1988C115.844 9.6114 115.44 9.3885 115.293 9.35179C114.743 9.20494 113.639 8.91124 113.161 8.91124C112.574 8.91124 112.424 9.24165 112.424 9.72154C112.424 9.79496 112.351 15.2757 112.351 19.099C112.351 19.2826 112.351 19.4294 112.351 19.6497C112.021 21.4145 110.99 23.8061 109.849 23.8061C108.709 23.8061 108.195 22.8123 108.195 18.252C108.195 15.6034 108.268 14.426 108.305 12.5143C108.341 11.4103 108.378 10.5659 108.378 10.3457C108.378 9.75825 107.348 9.46193 106.87 9.35179C106.393 9.24165 105.987 9.20494 105.656 9.20494C105.179 9.24165 104.883 9.53535 104.883 9.94181C104.883 10.1621 104.883 10.6026 104.883 10.6026C104.295 9.6822 103.338 9.02138 102.714 8.83781C101.022 8.32383 99.2209 8.76439 97.8599 10.6761C96.7926 12.1839 96.1318 13.8753 95.8748 16.3036C95.6912 18.0684 95.7647 19.87 96.0951 21.4146C95.6912 23.1427 94.9544 23.8428 94.1467 23.8428C92.9692 23.8428 92.1248 21.9312 92.235 18.6191C92.3084 16.4505 92.749 14.9033 93.2289 12.6979C93.4491 11.7407 93.2656 11.2635 92.8617 10.7862C92.4946 10.3457 91.6843 10.1254 90.5069 10.4191C89.6599 10.6026 88.485 10.8229 87.4178 10.9698C87.4178 10.9698 87.4912 10.7128 87.5279 10.2329C87.8216 7.80461 85.173 8.02489 84.3286 8.79848C83.8147 9.27574 83.4816 9.79234 83.3715 10.7836C83.1512 12.3281 84.4388 13.065 84.4388 13.065C84.0349 14.9767 83.0044 17.4417 81.9371 19.2433C81.3864 20.2004 80.9432 20.9347 80.3925 21.6715C80.3925 21.3778 80.3925 21.1208 80.3925 20.8245C80.3925 16.815 80.4292 13.6891 80.4659 12.5484C80.5026 11.4444 80.5394 10.6 80.5394 10.4165C80.5394 9.97591 80.2824 9.82905 79.7658 9.60616C79.2885 9.42259 78.7352 9.31246 78.1845 9.23903C77.4476 9.1656 77.0438 9.56944 77.0438 10.0126C77.0438 10.086 77.0438 10.6367 77.0438 10.6367C76.4564 9.7163 75.4992 9.05546 74.8751 8.8719C73.1837 8.35792 71.3822 8.79848 70.0212 10.7102C68.9539 12.218 68.2563 14.3133 68.036 16.301C67.8525 18.176 67.8892 19.7572 68.1462 21.1182C67.8892 22.4792 67.0789 23.8769 66.1978 23.8769C65.0571 23.8769 64.433 22.8831 64.433 18.3228C64.433 15.6742 64.5064 14.4968 64.5431 12.5851C64.5798 11.4811 64.6165 10.6367 64.6165 10.4165C64.6165 9.82906 63.5859 9.53273 63.1087 9.42259C62.5947 9.31245 62.1882 9.27574 61.8578 9.27574C61.4173 9.31246 61.1209 9.7163 61.1209 9.97329V10.6341C60.5335 9.71367 59.5764 9.05284 58.9523 8.86928C57.2609 8.3553 55.4593 8.83256 54.0983 10.7075C53.2146 11.9217 52.5171 13.2827 52.1132 16.2984C52.0031 17.1821 51.9664 17.9898 51.9664 18.7267C51.5992 20.8953 50.0547 23.3603 48.7671 23.3603C48.0302 23.3603 47.296 21.9259 47.296 18.8368C47.296 14.7171 47.553 8.90599 47.5897 8.31859C47.5897 8.31859 49.2077 8.28187 49.5014 8.28187C50.3117 8.28187 51.0459 8.28187 52.1132 8.24516C52.6639 8.20845 53.1805 6.29677 52.6272 6.03715C52.3702 5.92702 50.6054 5.85359 49.9052 5.81688C49.3178 5.81688 47.6605 5.67003 47.6605 5.67003C47.6605 5.67003 47.8073 1.80732 47.844 1.36677C47.8808 1.03635 47.4402 0.852789 47.1832 0.742651C46.5591 0.485662 46.0058 0.375526 45.3817 0.228675C44.4612 0.0451112 44.0574 0.228674 43.984 1.00226C43.8738 2.14298 43.8004 5.5258 43.8004 5.5258C43.1396 5.5258 40.8581 5.37895 40.1973 5.37895C39.5732 5.37895 38.9097 8.02751 39.7567 8.06422C40.7506 8.10094 42.442 8.13765 43.5827 8.17436C43.5827 8.17436 43.546 14.0956 43.546 15.9339C43.546 16.1174 43.546 16.301 43.546 16.4846C42.9219 19.7205 40.7139 21.4854 40.7139 21.4854C41.1912 19.3534 40.2366 17.7328 38.5059 16.3744C37.8818 15.8604 36.5942 14.9033 35.1965 13.8727C35.1965 13.8727 36.0068 13.0624 36.7411 11.4444C37.255 10.3037 37.2918 8.97942 36.0042 8.68572C33.9089 8.20845 32.2149 9.75301 31.7009 11.371C31.2971 12.6218 31.5174 13.579 32.2883 14.5335C32.3618 14.607 32.3985 14.6804 32.4719 14.7538C31.9946 15.6742 31.3679 16.8858 30.8172 17.8062C29.3094 20.4181 28.1686 22.5133 27.2875 22.5133C26.59 22.5133 26.59 20.4181 26.59 18.4303C26.59 16.7389 26.7001 14.1638 26.8103 11.5152C26.847 10.6315 26.4064 10.1542 25.6695 9.67696C25.229 9.41997 24.2718 8.86666 23.7212 8.86666C22.9108 8.86666 20.5219 8.9768 18.2772 15.4881C17.9835 16.2984 17.4302 17.8062 17.4302 17.8062L17.4669 9.97329C17.4669 9.78972 17.3567 9.60616 17.1365 9.49602C16.7693 9.27574 15.7388 8.8719 14.855 8.8719C14.4145 8.8719 14.2309 9.05547 14.2309 9.45931L14.1575 21.7056C14.1575 22.6261 14.1942 23.7275 14.2676 24.2073C14.341 24.6846 14.5246 25.0544 14.7082 25.3113C14.8917 25.5316 15.112 25.7152 15.4451 25.7886C15.7755 25.862 17.5403 26.0823 17.6531 25.4215C17.7632 24.6112 17.7632 23.7301 18.7204 20.4207C20.1915 15.2704 22.0665 12.7713 22.9869 11.8876C23.1337 11.7407 23.3173 11.7407 23.3173 11.961C23.2806 13.1017 23.1337 15.8971 23.0603 18.2861C22.8033 24.6846 23.9808 25.862 25.6355 25.862C26.923 25.862 28.6879 24.6112 30.6363 21.4119C31.8504 19.4268 32.9911 17.4758 33.8355 16.0414C34.4229 16.5921 35.0864 17.1454 35.7105 17.7695C37.2183 19.2039 37.7323 20.5649 37.4019 21.8892C37.1449 22.8831 36.1877 23.911 34.4963 22.9198C34.0191 22.6261 33.7988 22.4058 33.2822 22.0728C33.0252 21.8892 32.6214 21.8525 32.3618 22.036C31.7376 22.5133 31.3679 23.1401 31.1476 23.8743C30.9641 24.6112 31.6616 24.9783 32.4352 25.3454C33.096 25.6391 34.4937 25.8961 35.4142 25.9328C38.9071 26.043 41.7025 24.2414 43.6535 19.571C43.984 23.5806 45.4918 25.8594 48.0669 25.8594C49.7951 25.8594 51.5232 23.6147 52.2968 21.446C52.5171 22.3297 52.8475 23.1374 53.2539 23.7642C55.239 26.9267 59.1017 26.2292 61.0501 23.5439C61.6375 22.7336 61.7477 22.4032 61.7477 22.4032C62.0414 24.9416 64.0658 25.8227 65.2406 25.8227C66.5649 25.8227 67.8892 25.1986 68.8437 23.064C68.9539 23.2843 69.064 23.5046 69.2109 23.7248C71.196 26.8874 75.0587 26.1898 77.0071 23.5046C77.0805 23.3944 77.1906 23.2476 77.2641 23.1741L77.3375 24.8288C77.3375 24.8288 76.2335 25.8594 75.5359 26.4835C72.557 29.2422 70.2755 31.3008 70.092 33.729C69.8717 36.8182 72.3734 37.9589 74.2851 38.1057C76.3069 38.2526 78.0376 37.1486 79.0656 35.604C79.986 34.243 80.6102 31.3008 80.5734 28.3585C80.5734 27.1811 80.5367 25.7099 80.5 24.1287C81.5673 22.9145 82.7447 21.37 83.8094 19.5684C84.9868 17.62 86.2744 14.9715 86.9352 12.9103C86.9352 12.9103 88.0393 12.9103 89.2167 12.8369C89.5838 12.8002 89.6939 12.8736 89.6205 13.1673C89.5471 13.4977 88.1127 18.9417 89.4002 22.5448C90.284 25.0098 92.2691 25.8175 93.4465 25.8175C94.8075 25.8175 96.1318 24.7869 96.8293 23.2423C96.9028 23.4259 97.0129 23.5727 97.0863 23.7196C99.0714 26.8821 102.934 26.1846 104.883 23.4993C105.323 22.9119 105.58 22.3586 105.58 22.3586C105.984 24.9704 108.045 25.7781 109.183 25.7781C110.397 25.7781 111.538 25.2641 112.493 23.0561C112.529 24.0133 112.603 24.821 112.676 25.078C112.75 25.2248 113.08 25.4084 113.337 25.5185C114.441 25.9223 115.582 25.7388 115.986 25.6654C116.279 25.5919 116.499 25.3717 116.536 24.7816C116.61 23.2004 116.573 20.5518 117.05 18.5667C117.86 15.2573 118.595 13.9697 118.962 13.343C119.145 12.9759 119.402 12.9391 119.402 13.3063C119.402 14.0799 119.439 16.322 119.77 19.3009C119.99 21.509 120.32 22.8306 120.543 23.2371C121.204 24.4145 122.051 24.4879 122.712 24.4879C123.152 24.4879 124.036 24.3778 123.963 23.6042C123.926 23.2371 123.999 20.9556 124.773 17.7197C125.287 15.5877 126.171 13.6734 126.464 12.9759C126.575 12.7189 126.648 12.9392 126.648 12.9759C126.575 14.447 126.428 19.2275 127.015 21.8761C127.825 25.4425 130.178 25.8122 130.988 25.8122C132.716 25.8122 134.15 24.4879 134.628 20.995C134.712 20.1978 134.565 19.5737 134.014 19.5737Z" fill="white"/>
</svg>
