<svg width="153" height="39" viewBox="0 0 153 39" fill="none" xmlns="http://www.w3.org/2000/svg">
<g clip-path="url(#clip0_3368_27)">
<path d="M1.04688 5.71514H6.91684V27.0799H17.7775V32.4983H1.04688V5.71514ZM20.3678 14.3537H26.0002V32.4864H20.3678V14.3537ZM23.184 5.3349C23.8303 5.3349 24.4621 5.52655 24.9994 5.88561C25.5368 6.24466 25.9556 6.75501 26.203 7.3521C26.4503 7.94919 26.515 8.60622 26.3889 9.24009C26.2628 9.87396 25.9516 10.4562 25.4946 10.9132C25.0376 11.3702 24.4554 11.6814 23.8215 11.8075C23.1876 11.9336 22.5306 11.8689 21.9335 11.6215C21.3364 11.3742 20.8261 10.9554 20.467 10.418C20.108 9.88065 19.9163 9.24888 19.9163 8.60259C19.9163 7.73595 20.2606 6.9048 20.8734 6.29199C21.4862 5.67918 22.3174 5.3349 23.184 5.3349ZM49.5751 5.71514H55.2074V21.7209L61.6002 14.33H68.5039L61.113 22.7309L68.3494 32.4983H61.2675L55.2787 23.527H55.2074V32.4983H49.5751V5.71514ZM29.1253 14.3537H34.4962V16.8372H34.5674C35.1092 15.9121 35.8912 15.1509 36.8305 14.6342C37.7698 14.1175 38.8313 13.8646 39.9027 13.9022C45.6182 13.9022 46.6639 17.6571 46.6639 22.5408V32.4983H41.0791V23.6696C41.0791 21.5664 41.0791 18.9166 38.1441 18.9166C35.2091 18.9166 34.7576 21.2099 34.7576 23.5746V32.5459H29.1253V14.3537Z" fill="white"/>
<path d="M80.3746 21.3051C80.386 20.8479 80.3044 20.3931 80.1347 19.9684C79.9649 19.5438 79.7107 19.158 79.3873 18.8346C79.0639 18.5112 78.6781 18.2569 78.2534 18.0872C77.8288 17.9175 77.374 17.8358 76.9168 17.8473C75.9321 17.785 74.9624 18.1128 74.2175 18.7599C73.4725 19.407 73.0123 20.3213 72.9362 21.3051H80.3746ZM85.1276 29.3495C84.1876 30.4761 83.0094 31.3801 81.678 31.9965C80.3465 32.6129 78.8949 32.9264 77.4278 32.9143C71.7954 32.9143 67.2801 29.1594 67.2801 23.3251C67.2801 17.4908 71.7954 13.7478 77.4278 13.7478C82.6917 13.7478 85.995 17.5027 85.995 23.3251V25.0956H72.9243C73.0795 26.1028 73.5952 27.0195 74.3754 27.6751C75.1557 28.3308 76.1474 28.6809 77.1663 28.6603C77.969 28.6592 78.7582 28.4548 79.4605 28.0663C80.1628 27.6777 80.7552 27.1177 81.1826 26.4383L85.1276 29.3495ZM97.7469 18.7266C96.8271 18.6982 95.9198 18.945 95.1412 19.4353C94.3625 19.9256 93.7479 20.6372 93.3761 21.4789C93.0043 22.3207 92.8922 23.2542 93.0541 24.16C93.216 25.0659 93.6446 25.9027 94.285 26.5635C94.9254 27.2243 95.7485 27.6789 96.6488 27.8691C97.5491 28.0593 98.4857 27.9765 99.3386 27.6312C100.192 27.286 100.922 26.694 101.437 25.9311C101.951 25.1682 102.226 24.269 102.227 23.3489C102.277 22.7383 102.196 22.1239 101.988 21.5475C101.78 20.971 101.451 20.4459 101.023 20.0076C100.595 19.5694 100.078 19.2282 99.5065 19.0072C98.9351 18.7861 98.3228 18.6904 97.7112 18.7266M107.455 32.4865H102.227V30.11C101.573 30.9812 100.729 31.6911 99.7592 32.1855C98.7891 32.6798 97.7186 32.9454 96.6299 32.9618C91.2115 32.9618 87.6467 29.0525 87.6467 23.5271C87.6467 18.4533 90.8075 13.7953 95.9645 13.7953C97.0488 13.7 98.1401 13.8661 99.147 14.2796C100.154 14.6931 101.047 15.342 101.751 16.1718H101.823V5.71521H107.455V32.4865Z" fill="white"/>
<path d="M148.093 0.0947863H115.725C115.358 0.0900497 114.993 0.15856 114.652 0.29632C114.311 0.43408 114.001 0.638329 113.74 0.897154C113.479 1.15598 113.272 1.4642 113.131 1.80383C112.991 2.14346 112.919 2.5077 112.921 2.87529V35.374C112.924 35.7386 112.999 36.099 113.142 36.4345C113.284 36.77 113.492 37.074 113.753 37.329C114.013 37.584 114.322 37.7851 114.66 37.9206C114.999 38.0562 115.36 38.1235 115.725 38.1188H148.093C148.461 38.1283 148.828 38.0646 149.171 37.9313C149.514 37.798 149.827 37.5979 150.093 37.3426C150.358 37.0872 150.57 36.7817 150.716 36.4437C150.863 36.1058 150.94 35.7422 150.945 35.374V2.87529C150.945 2.50408 150.871 2.13659 150.727 1.79451C150.582 1.45243 150.371 1.14269 150.105 0.883538C149.84 0.62439 149.525 0.421088 149.179 0.285623C148.833 0.150157 148.464 0.0852678 148.093 0.0947863ZM124.185 32.4984H118.553V14.3538H124.185V32.4984ZM121.369 11.8941C120.723 11.8941 120.091 11.7025 119.554 11.3434C119.016 10.9844 118.598 10.474 118.35 9.87692C118.103 9.27983 118.038 8.62281 118.164 7.98894C118.29 7.35507 118.602 6.77282 119.059 6.31582C119.516 5.85883 120.098 5.54761 120.732 5.42153C121.366 5.29545 122.023 5.36016 122.62 5.60748C123.217 5.8548 123.727 6.27363 124.086 6.811C124.445 7.34837 124.637 7.98014 124.637 8.62643C124.637 9.49308 124.293 10.3242 123.68 10.937C123.067 11.5498 122.236 11.8941 121.369 11.8941ZM145.289 32.4984H139.656V23.6816C139.656 21.5784 139.656 18.9286 136.733 18.9286C133.81 18.9286 133.347 21.2219 133.347 23.5865V32.5578H127.715V14.3538H133.121V16.8491H133.192C133.736 15.9263 134.518 15.1675 135.457 14.6529C136.397 14.1384 137.457 13.8872 138.528 13.926C144.231 13.926 145.289 17.6809 145.289 22.5646V32.4984Z" fill="white"/>
</g>
<defs>
<clipPath id="clip0_3368_27">
<rect width="152.096" height="38.024" fill="white" transform="translate(0.0368652 0.0947876)"/>
</clipPath>
</defs>
</svg>
