<svg width="114" height="39" viewBox="0 0 114 39" fill="none" xmlns="http://www.w3.org/2000/svg">
<path d="M28.2211 28.0774C24.6766 26.0302 21.2861 24.0723 17.896 22.1136C16.3311 21.2093 14.7753 20.2883 13.1968 19.4087C12.7514 19.1603 12.691 18.9544 12.9016 18.4782C14.3632 15.1728 15.7854 11.8501 17.2224 8.53385C17.4713 7.95951 17.6669 7.34862 18.4828 7.33851C19.2993 7.32839 19.5021 7.91451 19.7566 8.50199C22.4796 14.7868 25.2065 21.0698 27.9373 27.3512C28.015 27.5306 28.0801 27.7155 28.2211 28.0774ZM12.2183 20.0502C12.4269 19.5595 12.5944 19.486 13.0744 19.7774C14.6952 20.7615 16.3512 21.6879 18.1 22.6977L8.92575 28.0038" fill="white"/>
<path d="M18.5636 35.8696C15.2005 35.8696 11.913 34.8723 9.11673 33.0039C6.32046 31.1355 4.14103 28.4799 2.85404 25.3728C1.56706 22.2658 1.23033 18.8468 1.88642 15.5484C2.54252 12.25 4.16199 9.22018 6.54002 6.84214C8.91806 4.46411 11.9479 2.84465 15.2463 2.18855C18.5447 1.53245 21.9636 1.86918 25.0707 3.15617C28.1777 4.44315 30.8334 6.62258 32.7018 9.41885C34.5702 12.2151 35.5675 15.5027 35.5675 18.8657C35.5675 21.0987 35.1276 23.3098 34.2731 25.3728C33.4186 27.4358 32.1661 29.3103 30.5871 30.8893C29.0082 32.4682 27.1337 33.7207 25.0707 34.5752C23.0077 35.4298 20.7966 35.8696 18.5636 35.8696ZM18.5636 3.67364C15.5589 3.67364 12.6216 4.56464 10.1233 6.23396C7.625 7.90329 5.67779 10.276 4.52794 13.052C3.37809 15.8279 3.07724 18.8826 3.66343 21.8295C4.24961 24.7765 5.69652 27.4835 7.82117 29.6081C9.94582 31.7328 12.6528 33.1797 15.5998 33.7659C18.5467 34.352 21.6013 34.0512 24.3773 32.9013C27.1533 31.7515 29.526 29.8043 31.1953 27.306C32.8646 24.8076 33.7556 21.8704 33.7556 18.8657C33.7556 14.8365 32.1551 10.9724 29.306 8.12329C26.4569 5.27423 22.5928 3.67364 18.5636 3.67364Z" fill="white"/>
<path d="M53.1181 12.2987H56.9704V25.1109H54.4758V16.4447C54.4758 16.1957 54.4787 15.8466 54.4846 15.3975C54.49 14.9486 54.4928 14.6023 54.493 14.3587L52.0652 25.1109H49.4631L47.0528 14.3587C47.0528 14.6021 47.0556 14.9484 47.0613 15.3975C47.0669 15.8464 47.0698 16.1955 47.07 16.4447V25.111H44.5757V12.2984H48.4711L50.8033 22.3727L53.1181 12.2987ZM65.4213 15.8284C66.0891 16.1303 66.6571 16.6164 67.0585 17.2296C67.4561 17.8166 67.7143 18.4867 67.8135 19.1887C67.8894 19.8125 67.9166 20.4411 67.895 21.0691H60.995C61.0333 22.0195 61.3634 22.6858 61.9855 23.0681C62.3974 23.3148 62.8713 23.4384 63.3513 23.4245C63.7384 23.4548 64.1258 23.3673 64.4622 23.1734C64.7987 22.9795 65.0686 22.6882 65.2365 22.338H67.7657C67.6515 22.9925 67.3295 23.5929 66.8475 24.0501C65.9987 24.9716 64.8106 25.4324 63.283 25.4326C62.0682 25.4486 60.8866 25.0359 59.946 24.267C58.9821 23.4895 58.5001 22.225 58.5001 20.4736C58.5001 18.8325 58.9352 17.574 59.8052 16.6981C60.25 16.2589 60.7802 15.9158 61.363 15.6898C61.9458 15.4639 62.5688 15.36 63.1933 15.3845C63.9591 15.3726 64.7186 15.5239 65.4213 15.8284ZM61.7155 17.9682C61.3444 18.3741 61.1131 18.8882 61.0554 19.4351H65.3234C65.3211 19.1538 65.2613 18.8759 65.1478 18.6184C65.0343 18.361 64.8695 18.1295 64.6633 17.938C64.2536 17.592 63.7302 17.41 63.1942 17.427C62.9238 17.4104 62.6528 17.4499 62.3983 17.543C62.1438 17.6362 61.9114 17.7809 61.7155 17.9682ZM68.1743 17.4877V15.7236H69.4954V13.0811H71.9468V15.7233H73.485V17.4877H71.9468V22.4944C71.9128 22.7461 71.9648 23.0019 72.0945 23.2203C72.1931 23.3157 72.4945 23.3634 72.9986 23.3634C73.0738 23.3634 73.1535 23.3625 73.2374 23.3595C73.3214 23.3565 73.4039 23.3521 73.485 23.3462V25.1979L72.3119 25.2411C71.1413 25.2814 70.3415 25.0786 69.9127 24.6329C69.6063 24.2673 69.4563 23.7957 69.4954 23.3203V17.4877L68.1743 17.4877ZM78.8284 19.3482C79.1662 19.3189 79.4987 19.2458 79.8176 19.1308C79.9702 19.0857 80.1043 18.9931 80.2005 18.8664C80.2967 18.7397 80.3498 18.5856 80.3521 18.4266C80.3683 18.2673 80.3383 18.1068 80.2655 17.9642C80.1928 17.8216 80.0805 17.7031 79.942 17.6227C79.5646 17.4537 79.1522 17.3776 78.7393 17.4008C78.1462 17.4008 77.7263 17.5457 77.4795 17.8356C77.287 18.089 77.1653 18.3891 77.1271 18.705H74.7367C74.7566 17.9689 75.0003 17.2564 75.4352 16.6622C76.0929 15.8277 77.2219 15.4105 78.8224 15.4105C79.7836 15.3924 80.7353 15.604 81.5984 16.0277C82.4072 16.4392 82.8117 17.2157 82.8117 18.3571V22.7031C82.8117 23.0044 82.8174 23.3695 82.8289 23.7983C82.8225 24.0273 82.8734 24.2543 82.9768 24.4587C83.0708 24.5851 83.1969 24.6842 83.3419 24.7456V25.111H80.6475C80.577 24.9371 80.5245 24.7565 80.4907 24.5719C80.462 24.4039 80.4388 24.2126 80.4213 23.9982C80.0744 24.3716 79.6736 24.691 79.2321 24.9458C78.6775 25.2575 78.0501 25.4164 77.414 25.4063C76.6349 25.4357 75.8729 25.1739 75.2763 24.6719C74.9897 24.4095 74.7652 24.0865 74.6192 23.7264C74.4733 23.3662 74.4095 22.978 74.4326 22.5901C74.4326 21.4253 74.8851 20.5822 75.79 20.0608C76.4748 19.7217 77.2177 19.5152 77.9793 19.4521L78.8284 19.3482ZM80.3431 20.5041C80.1911 20.5992 80.0302 20.6793 79.8626 20.7433C79.6462 20.8184 79.4237 20.8749 79.1977 20.9124L78.6336 21.0169C78.2384 21.068 77.854 21.1825 77.4952 21.356C77.3086 21.4584 77.1547 21.6114 77.0512 21.7974C76.9476 21.9834 76.8987 22.1948 76.91 22.4074C76.8942 22.5775 76.9182 22.749 76.9802 22.9082C77.0422 23.0674 77.1405 23.2099 77.2672 23.3245C77.5157 23.5164 77.823 23.6163 78.1369 23.6071C78.672 23.6089 79.1945 23.4449 79.6325 23.1376C80.0885 22.8247 80.3253 22.254 80.3431 21.4254L80.3431 20.5041ZM87.5055 25.111H85.0278V12.2984H87.5055V25.111ZM90.1218 12.2987H92.799V22.8072H99.1962V25.111H90.122L90.1218 12.2987ZM110.551 13.6633C110.952 14.2355 111.158 14.9211 111.139 15.6192C111.172 16.2985 110.962 16.9674 110.546 17.5053C110.272 17.8117 109.94 18.06 109.569 18.2354C110.174 18.4361 110.695 18.834 111.049 19.3654C111.394 19.9291 111.568 20.5817 111.548 21.2428C111.558 21.9644 111.36 22.6738 110.977 23.2856C110.723 23.7108 110.381 24.0776 109.976 24.3621C109.57 24.6466 109.109 24.8424 108.622 24.9367C108.026 25.0568 107.42 25.1152 106.812 25.111H101.039V12.2984H107.231C108.793 12.322 109.9 12.777 110.551 13.6633ZM103.594 14.5239V17.3486H106.708C107.18 17.3692 107.649 17.2595 108.063 17.0315C108.243 16.9083 108.387 16.7386 108.478 16.5405C108.57 16.3423 108.606 16.1231 108.584 15.906C108.584 15.3092 108.354 14.9151 107.896 14.7238C107.405 14.5772 106.893 14.5097 106.381 14.5239L103.594 14.5239ZM103.594 19.4696V22.8855H106.705C107.149 22.9065 107.592 22.8294 108.003 22.6596C108.564 22.3818 108.845 21.8487 108.844 21.0604C108.868 20.775 108.802 20.4893 108.656 20.2431C108.51 19.9969 108.29 19.8025 108.028 19.687C107.62 19.5289 107.185 19.455 106.748 19.4696L103.594 19.4696Z" fill="white"/>
</svg>
