<svg width="156" height="35" viewBox="0 0 156 35" fill="none" xmlns="http://www.w3.org/2000/svg">
<g clip-path="url(#clip0_3368_21)">
<path d="M0.183746 0.847778V16.6582H15.9941V0.847778H0.183746ZM17.6444 0.847778V16.6582H33.4548V0.847778H17.6444ZM145.931 6.03177C144.926 6.03177 144.049 6.26399 143.249 6.65087C142.45 7.08932 141.856 7.68243 141.418 8.48196C140.979 9.25571 140.747 10.1328 140.747 11.1387V13.1244H138.401V15.8582H140.747V27.413H144.126V15.8844H149.181V23.235C149.181 26.2526 150.6 27.7742 153.437 27.7742C153.901 27.7742 154.391 27.6969 154.855 27.6196C155.345 27.5164 155.707 27.3872 155.913 27.2841L155.939 27.2584V24.4984L155.81 24.6017C155.603 24.7306 155.423 24.8341 155.113 24.9115C154.855 24.9888 154.623 25.0142 154.443 25.0142C153.772 25.0142 153.308 24.8596 152.973 24.4727C152.663 24.1116 152.508 23.5185 152.508 22.6416V15.8844H155.939V13.1244H152.56V8.89453L152.457 8.92072L149.259 9.87481L149.181 9.9005V13.1244H144.126V11.319C144.126 10.4937 144.333 9.84922 144.694 9.43655C145.055 9.02389 145.596 8.81745 146.267 8.81745C146.731 8.81745 147.221 8.92032 147.763 9.15244L147.892 9.23002V6.31538L147.814 6.28969C147.35 6.13494 146.731 6.03177 145.931 6.03177ZM69.9241 7.08912C69.3567 7.08912 68.8924 7.29576 68.5056 7.65684C68.1187 8.01792 67.9121 8.48227 67.9121 9.04968C67.9121 9.5913 68.1187 10.0552 68.5056 10.4163C68.8924 10.7774 69.3567 10.9578 69.9241 10.9578C70.4915 10.9578 70.9815 10.7516 71.3426 10.4163C71.7295 10.0552 71.9355 9.5913 71.9355 9.04968C71.9355 8.50806 71.7295 8.04371 71.3426 7.65684C71.0073 7.29576 70.5173 7.08912 69.9241 7.08912ZM60.278 7.50219L55.171 20.0111L54.2426 22.6416H54.1656C54.0108 22.0484 53.7271 21.1457 53.2629 20.0624L48.2849 7.55357H43.4102V27.4906H46.6342V15.1878C46.6342 14.414 46.6343 13.5372 46.6085 12.454C46.5827 11.9123 46.531 11.4996 46.5052 11.1901H46.5828C46.7375 11.9638 46.9178 12.5311 47.0467 12.8922L53.0306 27.4387H55.3L61.232 12.7633C61.361 12.428 61.49 11.7575 61.6189 11.1901H61.6965C61.6191 12.6602 61.5676 13.9757 61.5418 14.7752V27.413H64.9718V7.50219H60.278ZM81.5816 12.7894C80.0599 12.7894 78.6675 13.1243 77.5069 13.7949C76.3463 14.4655 75.4177 15.3943 74.8245 16.5549C74.2055 17.7413 73.8961 19.1083 73.8961 20.6815C73.8961 22.0485 74.2056 23.2604 74.7988 24.3694C75.392 25.4527 76.217 26.3297 77.326 26.9229C78.3835 27.5161 79.6217 27.8256 81.0144 27.8256C82.6135 27.8256 83.9803 27.4905 85.0635 26.8715L85.0892 26.8458V23.7508L84.9602 23.8536C84.4702 24.2147 83.9031 24.5244 83.3357 24.7049C82.7425 24.9113 82.2005 25.0142 81.7363 25.0142C80.3951 25.0142 79.3379 24.6276 78.5899 23.7765C77.8162 22.9512 77.4293 21.8165 77.4293 20.3979C77.4293 18.9278 77.8161 17.7672 78.6156 16.9161C79.4152 16.065 80.4729 15.6265 81.7625 15.6265C82.8457 15.6265 83.9544 15.9874 84.9602 16.7096L85.0892 16.8128V13.537L85.0635 13.5113C84.625 13.3308 84.1352 13.1244 83.4646 12.9955C82.8456 12.8665 82.2006 12.7894 81.5816 12.7894ZM117.922 12.7894C116.323 12.7894 115.007 13.176 113.976 14.0271C112.944 14.8267 112.454 15.9102 112.454 17.174C112.454 17.8446 112.557 18.4375 112.789 18.9275C113.021 19.4176 113.357 19.8821 113.821 20.269C114.285 20.6301 114.956 21.0427 115.884 21.4296C116.658 21.7649 117.252 22.0227 117.613 22.229C117.974 22.4354 118.206 22.6676 118.386 22.8481C118.515 23.0545 118.592 23.3123 118.592 23.6476C118.592 24.6019 117.87 25.0661 116.4 25.0661C115.833 25.0661 115.24 24.9627 114.543 24.7306C113.847 24.4985 113.202 24.1634 112.66 23.7765L112.531 23.6733V26.9486L112.609 26.9748C113.099 27.2069 113.692 27.3614 114.414 27.542C115.137 27.6709 115.781 27.7742 116.349 27.7742C118.077 27.7742 119.495 27.3871 120.501 26.536C121.533 25.7107 122.074 24.6533 122.074 23.2864C122.074 22.3321 121.817 21.481 121.249 20.8362C120.501 20.2172 119.572 19.5723 118.231 19.0565C117.174 18.618 116.504 18.2828 116.194 17.9991C115.936 17.7412 115.807 17.3803 115.807 16.9161C115.807 16.5292 115.962 16.1423 116.349 15.8844C116.736 15.6265 117.174 15.4976 117.819 15.4976C118.386 15.4976 118.98 15.6007 119.547 15.7555C120.114 15.9102 120.63 16.1421 121.043 16.4516L121.172 16.5549V13.408L121.095 13.3823C120.708 13.2276 120.192 13.0731 119.573 12.9441C118.954 12.8409 118.386 12.7894 117.922 12.7894ZM103.659 12.8151C101.312 12.8151 99.4293 13.5115 98.1139 14.8785C96.7727 16.2454 96.1282 18.1279 96.1282 20.5007C96.1282 22.7188 96.7986 24.5245 98.0882 25.8398C99.3778 27.1294 101.132 27.7999 103.324 27.7999C105.62 27.7999 107.451 27.1036 108.766 25.7109C110.107 24.3181 110.752 22.4612 110.752 20.1657C110.752 17.8961 110.133 16.0906 108.869 14.7752C107.657 13.4598 105.877 12.8151 103.659 12.8151ZM130.921 12.8151C128.574 12.8151 126.691 13.5115 125.376 14.8785C124.06 16.2454 123.39 18.1279 123.39 20.5007C123.39 22.7188 124.061 24.5245 125.35 25.8398C126.64 27.1294 128.393 27.7999 130.586 27.7999C132.881 27.7999 134.712 27.1036 136.027 25.7109C137.369 24.3181 138.014 22.4612 138.014 20.1657C138.014 17.8961 137.394 16.0906 136.131 14.7752C134.918 13.4598 133.139 12.8151 130.921 12.8151ZM94.5293 12.8922C93.704 12.8922 92.93 13.1505 92.2594 13.6921C91.692 14.1564 91.3051 14.827 90.9699 15.6265H90.9442V13.1244H87.5913V27.413H90.9442V20.1138C90.9442 18.8758 91.2019 17.8444 91.7693 17.0964C92.3367 16.3227 93.059 15.9358 93.9359 15.9358C94.2454 15.9358 94.555 16.0132 94.9418 16.0648C95.3029 16.1679 95.5607 16.2713 95.7413 16.4003L95.8702 16.503V13.1501L95.7927 13.1244C95.5605 12.9697 95.0967 12.8922 94.5293 12.8922ZM68.2219 13.1244V27.413H71.5748V13.1244H68.2219ZM103.504 15.5746C104.691 15.5746 105.62 15.9614 106.29 16.7609C106.961 17.5605 107.322 18.7211 107.322 20.2428C107.27 21.7903 106.986 23.0027 106.341 23.8022C105.722 24.6018 104.742 24.9885 103.53 24.9885C102.318 24.9885 101.338 24.602 100.642 23.7508C99.9453 22.9513 99.61 21.7905 99.61 20.3204C99.61 18.7987 99.9711 17.6381 100.642 16.8128C101.338 15.9875 102.292 15.5746 103.504 15.5746ZM130.74 15.5746C131.901 15.5746 132.855 15.9614 133.526 16.7609C134.196 17.5605 134.558 18.7211 134.558 20.2428C134.558 21.7903 134.222 23.0027 133.577 23.8022C132.958 24.6018 131.979 24.9885 130.766 24.9885C129.528 24.9885 128.574 24.602 127.877 23.7508C127.181 22.9513 126.846 21.7905 126.846 20.3204C126.846 18.7987 127.207 17.6381 127.877 16.8128C128.574 15.9875 129.528 15.5746 130.74 15.5746ZM0.183746 18.3084V34.1188H15.9941V18.3084H0.183746ZM17.6444 18.3084V34.1188H33.4548V18.3084H17.6444Z" fill="white"/>
</g>
<defs>
<clipPath id="clip0_3368_21">
<rect width="155.755" height="33.271" fill="white" transform="translate(0.183746 0.847778)"/>
</clipPath>
</defs>
</svg>
