<svg width="133" height="38" viewBox="0 0 133 38" fill="none" xmlns="http://www.w3.org/2000/svg">
<path d="M28.3235 13.4669H14.8765V17.4278H24.4059C23.9294 23.0258 19.2706 25.4023 14.8765 25.4023C9.26471 25.4023 4.34118 20.9661 4.34118 14.7872C4.34118 8.76675 9 4.11936 14.8765 4.11936C19.3765 4.11936 22.0765 6.97117 22.0765 6.97117L24.8824 4.06655C24.8824 4.06655 21.2824 0.105713 14.7706 0.105713C6.45882 0.158524 0 7.18241 0 14.7344C0 22.1808 6.03529 29.4159 14.9824 29.4159C22.8176 29.4159 28.5882 24.0292 28.5882 16.1075C28.5882 14.4175 28.3235 13.4669 28.3235 13.4669ZM39.3353 10.6151C33.8294 10.6151 29.8588 14.8928 29.8588 19.9627C29.8588 25.0326 33.6706 29.4159 39.3882 29.4159C44.5235 29.4159 48.7588 25.4551 48.7588 20.0683C48.8118 13.7838 43.8882 10.6151 39.3353 10.6151ZM39.3882 14.3119C42.0882 14.3119 44.6824 16.4772 44.6824 20.0155C44.6824 23.4483 42.1412 25.7191 39.3882 25.7191C36.3706 25.7191 33.9882 23.3426 33.9882 20.0155C33.9882 16.7412 36.3706 14.3119 39.3882 14.3119ZM59.9294 10.6151C54.4235 10.6151 50.4529 14.8928 50.4529 19.9627C50.4529 25.0326 54.2647 29.4159 59.9824 29.4159C65.1177 29.4159 69.3529 25.4551 69.3529 20.0683C69.4059 13.7838 64.4824 10.6151 59.9294 10.6151ZM59.9824 14.3119C62.6824 14.3119 65.2765 16.4772 65.2765 20.0155C65.2765 23.4483 62.7353 25.7191 59.9824 25.7191C56.9647 25.7191 54.5824 23.3426 54.5824 20.0155C54.6353 16.7412 56.9647 14.3119 59.9824 14.3119ZM80.1529 10.6151C75.0706 10.6151 71.1 15.0513 71.1 20.0155C71.1 25.6663 75.7059 29.4159 80.0471 29.4159C82.7471 29.4159 84.1765 28.3597 85.2353 27.145V28.9934C85.2353 32.2149 83.2765 34.1689 80.2588 34.1689C77.4 34.1689 75.9176 32.0565 75.4412 30.8418L71.8412 32.3733C73.1118 35.0667 75.7059 37.9185 80.3118 37.9185C85.3412 37.9185 89.2059 34.7498 89.2059 28.0956V11.1961H85.2353V12.7804C84.0177 11.4601 82.3765 10.6151 80.1529 10.6151ZM80.5235 14.3119C83.0118 14.3119 85.5529 16.4244 85.5529 20.0155C85.5529 23.7123 83.0118 25.7191 80.4706 25.7191C77.7706 25.7191 75.2824 23.5539 75.2824 20.0683C75.2294 16.4244 77.8765 14.3119 80.5235 14.3119ZM106.729 10.5623C101.965 10.5623 97.9412 14.3647 97.9412 19.9627C97.9412 25.8776 102.388 29.4159 107.206 29.4159C111.176 29.4159 113.665 27.2507 115.094 25.2966L111.812 23.1314C110.965 24.4517 109.535 25.7191 107.206 25.7191C104.559 25.7191 103.341 24.2932 102.6 22.8673L115.253 17.639L114.618 16.1075C113.347 13.0973 110.488 10.5623 106.729 10.5623ZM106.888 14.2063C108.635 14.2063 109.853 15.1041 110.382 16.2131L101.965 19.7515C101.594 17.0053 104.188 14.2063 106.888 14.2063ZM91.9588 28.835H96.0882V1.16194H91.9588V28.835ZM132.353 14.8928H127.271V9.82297H123.141V14.8928H118.059V19.0121H123.141V24.082H127.271V19.0121H132.353V14.8928Z" fill="white"/>
</svg>
