<svg width="118" height="36" viewBox="0 0 118 36" fill="none" xmlns="http://www.w3.org/2000/svg">
<path d="M11.0296 11.9185V11.1347C8.41485 11.1347 5.65422 11.6934 5.65422 14.7761C5.65422 16.3378 6.4632 17.3951 7.8503 17.3951C8.86881 17.3951 9.77867 16.7704 10.3529 15.7539C11.0653 14.5026 11.0296 13.3269 11.0296 11.9185ZM14.6764 20.7319C14.4374 20.9453 14.0915 20.9608 13.8218 20.8192C12.6217 19.8221 12.4081 19.3584 11.747 18.4078C9.76315 20.4332 8.35859 21.0384 5.78614 21.0384C2.74422 21.0384 0.373535 19.1605 0.373535 15.4027C0.373535 12.4675 1.96628 10.4693 4.23026 9.49155C6.19354 8.62825 8.93477 8.47499 11.0296 8.23636V7.76883C11.0296 6.90746 11.0955 5.8909 10.5923 5.14788C10.1492 4.48246 9.30531 4.20698 8.56229 4.20698C7.18488 4.20698 5.95298 4.91508 5.65422 6.37978C5.59214 6.7057 5.35352 7.0258 5.0276 7.04132L1.51814 6.66496C1.22326 6.599 0.897336 6.35844 0.978816 5.90642C1.7878 1.65394 5.629 0.373535 9.06669 0.373535C10.8263 0.373535 13.1252 0.841076 14.5136 2.17386C16.2732 3.8151 16.1056 6.0073 16.1056 8.3935V14.0292C16.1056 15.7228 16.8075 16.4659 17.4686 17.3815C17.7024 17.7055 17.7532 18.0974 17.4589 18.3418C16.7214 18.9568 15.4091 20.1014 14.6867 20.7416H14.677M58.4376 11.9185V11.1347C55.8167 11.1347 53.0561 11.6934 53.0561 14.7761C53.0561 16.3378 53.8689 17.3951 55.258 17.3951C56.2706 17.3951 57.1863 16.7704 57.7606 15.7539C58.4725 14.5026 58.4376 13.3269 58.4376 11.9185ZM62.0829 20.7319C61.8443 20.9453 61.4989 20.9608 61.2293 20.8192C60.0284 19.8221 59.8092 19.3584 59.1535 18.4078C57.1708 20.4332 55.7624 21.0384 53.1938 21.0384C50.146 21.0384 47.7812 19.1605 47.7812 15.4027C47.7812 12.4675 49.3681 10.4693 51.636 9.49155C53.5993 8.62825 56.3405 8.47499 58.4376 8.23636V7.76883C58.4376 6.90746 58.5036 5.8909 57.9934 5.14788C57.5569 4.48246 56.713 4.20698 55.9641 4.20698C54.5867 4.20698 53.3606 4.91508 53.0599 6.37978C52.9998 6.7057 52.7612 7.0258 52.4294 7.04132L48.9258 6.66496C48.6309 6.599 48.2992 6.35844 48.3865 5.90642C49.1896 1.65394 53.0347 0.373535 56.4743 0.373535C58.2339 0.373535 60.5328 0.841076 61.9199 2.17386C63.6814 3.8151 63.5127 6.0073 63.5127 8.3935V14.0292C63.5127 15.7228 64.2149 16.4659 64.8765 17.3815C65.1054 17.7055 65.1558 18.0974 64.8571 18.3418C64.1199 18.9568 62.8065 20.1014 62.0848 20.7416M106.618 20.7824H103.017C102.654 20.7571 102.365 20.4681 102.365 20.1111V1.54724C102.396 1.20774 102.697 0.941956 103.063 0.941956H106.414C106.73 0.961356 106.99 1.17088 107.06 1.46188V4.3001H107.126C108.139 1.76064 109.557 0.550075 112.055 0.550075C113.677 0.550075 115.258 1.13596 116.277 2.7384C117.222 4.2225 117.222 6.71928 117.222 8.51573V20.1984C117.181 20.5243 116.882 20.7824 116.525 20.7824H112.899C112.57 20.7571 112.294 20.5127 112.259 20.1984V10.1182C112.259 8.08893 112.492 5.11878 109.995 5.11878C109.114 5.11878 108.307 5.70854 107.904 6.60288C107.396 7.73778 107.33 8.86687 107.33 10.1182V20.1111C107.33 20.4836 107.009 20.7824 106.623 20.7824M91.3888 0.550075C96.7548 0.550075 99.659 5.15952 99.659 11.0183C99.659 16.6793 96.4502 21.1704 91.3888 21.1704C86.1197 21.1704 83.2524 16.5609 83.2524 10.8204C83.2524 5.04118 86.1566 0.550075 91.3888 0.550075ZM91.4198 4.34084C88.7542 4.34084 88.5874 7.97058 88.5874 10.2346C88.5874 12.5024 88.5525 17.3447 91.3888 17.3447C94.1921 17.3447 94.324 13.4395 94.324 11.0591C94.324 9.49155 94.258 7.62138 93.7847 6.13534C93.3792 4.8433 92.5702 4.34084 91.4198 4.34084ZM24.5537 20.7824H20.9376C20.5922 20.7571 20.3168 20.4991 20.2915 20.1674V1.60932C20.2915 1.23684 20.6019 0.941956 20.988 0.941956H24.3597C24.7109 0.961356 24.9902 1.22714 25.0154 1.56276V3.9897H25.0814C25.9622 1.64424 27.615 0.550075 29.8422 0.550075C32.1062 0.550075 33.5204 1.64424 34.537 3.9897C35.4119 1.64424 37.4004 0.550075 39.5325 0.550075C41.0476 0.550075 42.7063 1.1767 43.7171 2.57932C44.8617 4.14102 44.6289 6.41082 44.6289 8.39933V20.1111C44.6289 20.4836 44.3185 20.7824 43.9305 20.7824H40.3201C39.9593 20.7571 39.6683 20.4681 39.6683 20.1111V10.2753C39.6683 9.49155 39.7401 7.5399 39.5674 6.79688C39.2977 5.54946 38.4888 5.20026 37.4412 5.20026C36.5662 5.20026 35.6505 5.7842 35.28 6.71928C34.9095 7.6563 34.9444 9.22189 34.9444 10.2753V20.1111C34.9444 20.4836 34.634 20.7824 34.2479 20.7824H30.6376C30.2709 20.7571 29.9857 20.4681 29.9857 20.1111V10.2753C29.9857 8.20533 30.3252 5.15952 27.7567 5.15952C25.159 5.15952 25.2599 8.12966 25.2599 10.2753V20.1111C25.2599 20.4836 24.9495 20.7824 24.5634 20.7824M67.9128 4.21862V1.56276C67.9128 1.16118 68.2174 0.891516 68.584 0.891516H80.4704C80.8507 0.891516 81.1572 1.167 81.1572 1.56276V3.83644C81.1572 4.21862 80.8313 4.7172 80.2609 5.50484L74.1014 14.2989C76.3906 14.2426 78.8059 14.5841 80.8817 15.7539C81.3492 16.0177 81.4773 16.4038 81.5122 16.786V19.6184C81.5122 20.0044 81.0854 20.4584 80.6373 20.2236C76.9804 18.3069 72.1226 18.0974 68.0796 20.245C67.6683 20.4681 67.2357 20.0199 67.2357 19.6339V16.9431C67.2357 16.5105 67.2357 15.7733 67.6742 15.1176L74.8095 4.88404H68.5995C68.2174 4.88404 67.9128 4.61438 67.9128 4.21862ZM75.6844 24.6798C74.8192 23.5701 69.9459 24.156 67.7595 24.414C67.0941 24.4955 66.9913 23.9155 67.5927 23.4984C71.4727 20.7688 77.8398 21.5564 78.5828 22.4721C79.3258 23.3917 78.3888 29.7762 74.7435 32.822C74.1829 33.2896 73.6494 33.0412 73.8977 32.4204C74.7183 30.3757 76.5536 25.7934 75.6844 24.6798ZM72.8617 27.908C73.985 27.0738 73.0247 25.8341 71.8743 26.3211C64.2656 29.5512 55.9915 31.1071 48.4681 31.1071C37.3151 31.1071 26.517 28.0515 17.7839 22.9707C17.0211 22.5225 16.4511 23.3063 17.0874 23.8805C25.1784 31.1885 35.8756 35.5846 47.7562 35.5846C56.2301 35.5846 66.0717 32.9132 72.8617 27.908Z" fill="white"/>
</svg>
