<svg width="22" height="19" viewBox="0 0 22 19" fill="none" xmlns="http://www.w3.org/2000/svg">
<path d="M4.5837 5.72832L5.08096 5.23106L5.08096 5.23106L4.5837 5.72832ZM2.77503 3.91965L2.27776 4.41692L2.27776 4.41692L2.77503 3.91965ZM10.2763 17.2812C9.88787 17.2812 9.57302 17.5961 9.57302 17.9845C9.57302 18.3729 9.88787 18.6877 10.2763 18.6877V17.2812ZM19.6951 16.0519L19.1261 15.6385L19.1261 15.6385L19.6951 16.0519ZM18.6579 17.0891L18.2445 16.5202L18.2445 16.5202L18.6579 17.0891ZM18.6579 2.00207L19.0712 1.43314L19.0712 1.43314L18.6579 2.00207ZM19.6951 3.03926L19.1261 3.45262L19.1261 3.45262L19.6951 3.03926ZM3.76995 2.00207L3.35659 1.43314L3.35659 1.43314L3.76995 2.00207ZM1.13413 9.54558C1.13413 9.93397 1.44898 10.2488 1.83737 10.2488C2.22576 10.2488 2.54061 9.93397 2.54061 9.54558H1.13413ZM2.73275 3.03926L2.16382 2.62591L2.16382 2.62591L2.73275 3.03926ZM0.899719 15.4059C0.51133 15.4059 0.196478 15.7208 0.196478 16.1092C0.196478 16.4975 0.51133 16.8124 0.899719 16.8124V15.4059ZM6.52564 16.8124C6.91403 16.8124 7.22889 16.4975 7.22889 16.1092C7.22889 15.7208 6.91403 15.4059 6.52564 15.4059V16.8124ZM0.899719 12.593C0.51133 12.593 0.196478 12.9078 0.196478 13.2962C0.196478 13.6846 0.51133 13.9994 0.899719 13.9994V12.593ZM3.71268 13.9994C4.10107 13.9994 4.41592 13.6846 4.41592 13.2962C4.41592 12.9078 4.10107 12.593 3.71268 12.593V13.9994ZM2.41968 3.56431L1.78616 3.25904L2.41968 3.56431ZM5.08096 5.23106L3.38605 3.53614L2.39152 4.53068L4.08643 6.22559L5.08096 5.23106ZM19.0418 3.53614L17.3469 5.23106L18.3414 6.22559L20.0363 4.53068L19.0418 3.53614ZM4.08643 6.22559C5.63513 7.77429 6.84562 8.98689 7.91607 9.80362C9.00275 10.6327 10.0274 11.1198 11.2139 11.1198V9.71335C10.4585 9.71335 9.73078 9.41909 8.76922 8.68544C7.79142 7.9394 6.65778 6.80787 5.08096 5.23106L4.08643 6.22559ZM17.3469 5.23106C15.7701 6.80787 14.6364 7.9394 13.6586 8.68544C12.697 9.41909 11.9693 9.71335 11.2139 9.71335V11.1198C12.4005 11.1198 13.4251 10.6327 14.5118 9.80362C15.5822 8.98689 16.7927 7.77429 18.3414 6.22559L17.3469 5.23106ZM5.08096 5.23106L3.27229 3.42239L2.27776 4.41692L4.08643 6.22559L5.08096 5.23106ZM19.1555 3.42239L17.3469 5.23106L18.3414 6.22559L20.1501 4.41692L19.1555 3.42239ZM10.2763 1.80993H12.1516V0.403449H10.2763V1.80993ZM12.1516 17.2812H10.2763V18.6877H12.1516V17.2812ZM19.8872 9.54558C19.8872 11.3192 19.8863 12.593 19.7794 13.5793C19.6739 14.5525 19.4722 15.1622 19.1261 15.6385L20.264 16.4652C20.8133 15.7092 21.0593 14.8237 21.1777 13.7308C21.2947 12.6511 21.2937 11.2879 21.2937 9.54558H19.8872ZM12.1516 18.6877C13.8939 18.6877 15.2571 18.6887 16.3368 18.5717C17.4297 18.4533 18.3152 18.2073 19.0712 17.658L18.2445 16.5202C17.7682 16.8662 17.1585 17.068 16.1853 17.1734C15.199 17.2803 13.9252 17.2812 12.1516 17.2812V18.6877ZM19.1261 15.6385C18.8803 15.9768 18.5828 16.2744 18.2445 16.5202L19.0712 17.658C19.5289 17.3255 19.9315 16.923 20.264 16.4652L19.1261 15.6385ZM12.1516 1.80993C13.9252 1.80993 15.199 1.8109 16.1853 1.91776C17.1585 2.0232 17.7682 2.22493 18.2445 2.571L19.0712 1.43314C18.3152 0.883831 17.4297 0.637868 16.3368 0.519463C15.2571 0.402483 13.8939 0.403449 12.1516 0.403449V1.80993ZM18.2445 2.571C18.5828 2.8168 18.8804 3.11431 19.1261 3.45262L20.264 2.62591C19.9315 2.1682 19.5289 1.76568 19.0712 1.43314L18.2445 2.571ZM10.2763 0.403449C8.53395 0.403449 7.17073 0.402483 6.09102 0.519463C4.99815 0.637868 4.11265 0.883831 3.35659 1.43314L4.1833 2.571C4.65963 2.22493 5.26931 2.0232 6.24252 1.91776C7.22888 1.8109 8.50262 1.80993 10.2763 1.80993V0.403449ZM3.35659 1.43314C2.89888 1.76568 2.49637 2.1682 2.16382 2.62591L3.30169 3.45262C3.54748 3.11431 3.84499 2.8168 4.1833 2.571L3.35659 1.43314ZM0.899719 16.8124H6.52564V15.4059H0.899719V16.8124ZM0.899719 13.9994H3.71268V12.593H0.899719V13.9994ZM2.54061 9.54558C2.54061 8.01235 2.54107 6.84976 2.6114 5.91877C2.68161 4.98945 2.81804 4.35763 3.05321 3.86958L1.78616 3.25904C1.43901 3.97946 1.28429 4.81517 1.20892 5.81282C1.13368 6.8088 1.13413 8.03261 1.13413 9.54558H2.54061ZM3.05321 3.86958C3.12522 3.72014 3.2074 3.58239 3.30169 3.45262L2.16382 2.62591C2.01885 2.82545 1.89374 3.03576 1.78616 3.25904L3.05321 3.86958ZM3.27229 3.42239L2.91695 3.06704L1.92242 4.06158L2.27776 4.41692L3.27229 3.42239ZM21.2937 9.54558C21.2937 8.0326 21.2942 6.8088 21.2189 5.81282C21.1435 4.81517 20.9888 3.97946 20.6417 3.25904L19.3746 3.86958C19.6098 4.35763 19.7462 4.98945 19.8164 5.91877C19.8868 6.84975 19.8872 8.01235 19.8872 9.54558H21.2937ZM20.6417 3.25904C20.5341 3.03576 20.409 2.82545 20.264 2.62591L19.1261 3.45262C19.2204 3.58239 19.3026 3.72014 19.3746 3.86958L20.6417 3.25904ZM20.1501 4.41692L20.5054 4.06157L19.5109 3.06704L19.1555 3.42239L20.1501 4.41692Z" fill="white"/>
</svg>
