<svg width="21" height="21" viewBox="0 0 21 21" fill="none" xmlns="http://www.w3.org/2000/svg">
<path d="M19.5122 4.21303C19.2549 3.54851 18.8617 2.94503 18.3577 2.44124C17.8537 1.93745 17.2501 1.54443 16.5854 1.28736C15.8077 0.995407 14.9861 0.837546 14.1555 0.820493C13.0851 0.773806 12.7461 0.760468 10.0316 0.760468C7.3171 0.760468 6.96918 0.760467 5.90762 0.820493C5.0777 0.836674 4.25666 0.994568 3.47993 1.28736C2.81514 1.54413 2.21136 1.93704 1.70734 2.44087C1.20331 2.94471 0.810175 3.54833 0.553146 4.21303C0.26114 4.99071 0.10364 5.81241 0.0873949 6.64294C0.039597 7.71228 0.0251465 8.05131 0.0251465 10.7669C0.0251465 13.4814 0.0251465 13.8271 0.0873949 14.8909C0.104069 15.7223 0.260801 16.5427 0.553146 17.3219C0.810897 17.9863 1.20442 18.5897 1.70856 19.0935C2.21271 19.5973 2.81639 19.9903 3.48105 20.2476C4.2563 20.5512 5.07769 20.7204 5.90984 20.7478C6.9803 20.7945 7.31933 20.8089 10.0338 20.8089C12.7483 20.8089 13.0962 20.8089 14.1578 20.7478C14.9882 20.7309 15.8098 20.5734 16.5877 20.282C17.2521 20.0243 17.8556 19.631 18.3595 19.1271C18.8634 18.6231 19.2568 18.0197 19.5145 17.3552C19.8068 16.5771 19.9635 15.7568 19.9802 14.9253C20.028 13.856 20.0425 13.5169 20.0425 10.8014C20.0425 8.08577 20.0425 7.74118 19.9802 6.6774C19.9673 5.83513 19.809 5.00142 19.5122 4.21303ZM18.1583 14.8086C18.1512 15.4492 18.0342 16.0838 17.8126 16.6849C17.6457 17.1172 17.3901 17.5097 17.0624 17.8373C16.7346 18.1649 16.342 18.4202 15.9096 18.5869C15.3152 18.8074 14.6873 18.9244 14.0533 18.9326C12.9973 18.9815 12.6994 18.9937 9.99156 18.9937C7.28153 18.9937 7.00475 18.9937 5.92874 18.9326C5.29506 18.9248 4.66746 18.8079 4.07352 18.5869C3.63965 18.4212 3.24539 18.1663 2.91624 17.8387C2.58709 17.5111 2.33038 17.118 2.16271 16.6849C1.94423 16.0903 1.82736 15.4631 1.81701 14.8297C1.76921 13.7737 1.7581 13.4758 1.7581 10.768C1.7581 8.05909 1.7581 7.78231 1.81701 6.70519C1.8242 6.06495 1.94113 5.43068 2.16271 4.82996C2.50174 3.95292 3.19648 3.26263 4.07352 2.92693C4.66776 2.707 5.29517 2.59009 5.92874 2.58123C6.98585 2.53344 7.28265 2.5201 9.99156 2.5201C12.7005 2.5201 12.9784 2.5201 14.0533 2.58123C14.6873 2.58886 15.3153 2.70581 15.9096 2.92693C16.3419 3.09398 16.7346 3.34956 17.0623 3.67728C17.39 4.00501 17.6456 4.39763 17.8126 4.82996C18.0311 5.4246 18.148 6.05176 18.1583 6.68518C18.2061 7.74229 18.2184 8.03909 18.2184 10.748C18.2184 13.4558 18.2184 13.747 18.1706 14.8097H18.1583V14.8086Z" fill="white"/>
<path d="M10.0321 5.63814C8.66848 5.63814 7.36068 6.18048 6.39643 7.14586C5.43218 8.11123 4.89048 9.42055 4.89048 10.7858C4.89048 12.151 5.43218 13.4604 6.39643 14.4257C7.36068 15.3911 8.66848 15.9334 10.0321 15.9334C11.3958 15.9334 12.7036 15.3911 13.6678 14.4257C14.6321 13.4604 15.1738 12.151 15.1738 10.7858C15.1738 9.42055 14.6321 8.11123 13.6678 7.14586C12.7036 6.18048 11.3958 5.63814 10.0321 5.63814ZM10.0321 14.1289C9.14623 14.1289 8.29661 13.7765 7.67018 13.1494C7.04376 12.5222 6.69183 11.6716 6.69183 10.7847C6.69183 9.89775 7.04376 9.04714 7.67018 8.41998C8.29661 7.79282 9.14623 7.44049 10.0321 7.44049C10.918 7.44049 11.7676 7.79282 12.3941 8.41998C13.0205 9.04714 13.3724 9.89775 13.3724 10.7847C13.3724 11.6716 13.0205 12.5222 12.3941 13.1494C11.7676 13.7765 10.918 14.1289 10.0321 14.1289Z" fill="white"/>
<path d="M15.3769 6.64896C16.0389 6.64896 16.5756 6.11167 16.5756 5.44889C16.5756 4.7861 16.0389 4.24881 15.3769 4.24881C14.7149 4.24881 14.1782 4.7861 14.1782 5.44889C14.1782 6.11167 14.7149 6.64896 15.3769 6.64896Z" fill="white"/>
</svg>
