<svg width="21" height="20" viewBox="0 0 21 20" fill="none" xmlns="http://www.w3.org/2000/svg">
<path d="M20.1178 6.70617C20.102 5.9036 20.0703 5.1036 19.8909 4.31585C19.3783 2.06151 17.8527 0.605138 15.5625 0.264175C14.7729 0.146091 13.9654 0.14558 13.1661 0.0908824C13.0592 0.0837258 12.9524 0.0719684 12.8451 0.0622559H7.94843C7.79051 0.0729908 7.63258 0.08986 7.47415 0.0929272C6.63342 0.109796 5.7932 0.123087 4.96218 0.285645C2.77066 0.714021 1.21851 2.26803 0.793801 4.46205C0.612367 5.39906 0.569947 6.34681 0.567392 7.2971C0.562281 9.0055 0.559726 10.7144 0.570969 12.4228C0.577614 13.4615 0.606234 14.5023 0.863308 15.5175C1.4117 17.6829 2.81155 18.9609 4.97598 19.4215C5.94039 19.627 6.9232 19.6551 7.90499 19.652C9.82359 19.6464 11.7422 19.6351 13.6603 19.6142C14.5087 19.605 15.3561 19.5523 16.1784 19.3233C18.1905 18.7636 19.3931 17.4289 19.8827 15.4214C20.0749 14.6352 20.102 13.8332 20.1178 13.0296C20.1224 12.8011 20.1403 12.5736 20.1526 12.3456V7.44739C20.1403 7.20049 20.1224 6.95359 20.1178 6.70617ZM18.3791 9.577H18.3535C18.3535 10.8263 18.3745 12.0767 18.3443 13.3255C18.3305 13.9088 18.261 14.4982 18.1404 15.0687C17.8343 16.5143 16.8254 17.4703 15.3305 17.6901C14.4887 17.8133 13.6306 17.8634 12.7792 17.8721C10.9183 17.892 9.05646 17.87 7.19459 17.8537C6.46119 17.847 5.72829 17.7969 5.01431 17.6144C3.59351 17.252 2.76862 16.3078 2.49008 14.8975C2.36793 14.282 2.30558 13.6461 2.29843 13.0183C2.27696 10.9587 2.28309 8.89866 2.29894 6.83908C2.30558 5.94041 2.37407 5.04379 2.65772 4.17834C3.03183 3.03737 3.82145 2.35596 4.96678 2.05538C5.67003 1.87033 6.38912 1.83915 7.10924 1.82739C8.07825 1.81154 9.04726 1.79774 10.0163 1.80387C11.3732 1.81256 12.7311 1.81665 14.0865 1.87135C14.6543 1.89384 15.2288 1.99608 15.7797 2.13921C17.1632 2.49807 17.9738 3.43252 18.189 4.82551C18.3193 5.67204 18.3392 6.53748 18.373 7.39627C18.4016 8.12216 18.3791 8.84958 18.3791 9.577Z" fill="#BC1616"/>
<path d="M10.355 4.8301C7.5742 4.83777 5.33873 7.0783 5.33975 9.85661C5.34129 12.6431 7.59618 14.8903 10.378 14.8775C13.1583 14.8647 15.3999 12.6109 15.3846 9.84281C15.3697 7.05735 13.1271 4.82243 10.355 4.8301ZM10.3708 13.1144C8.56621 13.119 7.1081 11.6708 7.10299 9.86888C7.09788 8.05314 8.54935 6.59574 10.3622 6.59625C12.1688 6.59676 13.6157 8.04189 13.6198 9.85048C13.6239 11.6545 12.175 13.1098 10.3708 13.1144Z" fill="#BC1616"/>
<path d="M16.7563 4.6144C16.7629 5.27179 16.2452 5.80036 15.592 5.80291C14.9476 5.80496 14.4191 5.28559 14.4135 4.64507C14.4079 3.98768 14.9256 3.46218 15.5808 3.45912C16.2314 3.45656 16.7496 3.96519 16.7563 4.6144Z" fill="#BC1616"/>
</svg>
