<svg width="461" height="701" viewBox="0 0 461 701" fill="none" xmlns="http://www.w3.org/2000/svg">
<path opacity="0.0263" d="M454.346 690.774C454.346 696.177 354.144 700.573 230.5 700.573C106.857 700.573 6.65381 696.177 6.65381 690.774C6.65381 685.371 106.857 680.975 230.5 680.975C354.144 680.975 454.346 685.34 454.346 690.774Z" fill="white"/>
<path opacity="0.0526" d="M447.662 690.774C447.662 695.963 350.42 700.145 230.5 700.145C110.58 700.145 13.3379 695.933 13.3379 690.774C13.3379 685.584 110.58 681.402 230.5 681.402C350.42 681.402 447.662 685.584 447.662 690.774Z" fill="white"/>
<path opacity="0.0789" d="M441.008 690.774C441.008 695.719 346.757 699.748 230.5 699.748C114.243 699.748 19.9917 695.75 19.9917 690.774C19.9917 685.829 114.243 681.799 230.5 681.799C346.757 681.799 441.008 685.798 441.008 690.774Z" fill="white"/>
<path opacity="0.1053" d="M434.324 690.774C434.324 695.505 343.064 699.321 230.5 699.321C117.936 699.321 26.676 695.505 26.676 690.774C26.676 686.042 117.936 682.227 230.5 682.227C343.064 682.227 434.324 686.042 434.324 690.774Z" fill="white"/>
<path opacity="0.1316" d="M427.67 690.774C427.67 695.261 339.402 698.894 230.5 698.894C121.599 698.894 33.3298 695.261 33.3298 690.774C33.3298 686.286 121.599 682.654 230.5 682.654C339.402 682.654 427.67 686.286 427.67 690.774Z" fill="white"/>
<path opacity="0.1579" d="M420.986 690.774C420.986 695.017 335.708 698.466 230.5 698.466C125.292 698.466 40.0139 695.017 40.0139 690.774C40.0139 686.531 125.292 683.081 230.5 683.081C335.708 683.081 420.986 686.5 420.986 690.774Z" fill="white"/>
<path opacity="0.1842" d="M414.332 690.774C414.332 694.803 332.046 698.07 230.5 698.07C128.954 698.07 46.6677 694.803 46.6677 690.774C46.6677 686.744 128.954 683.478 230.5 683.478C332.046 683.478 414.332 686.744 414.332 690.774Z" fill="white"/>
<path opacity="0.2105" d="M407.648 690.774C407.648 694.559 328.322 697.642 230.5 697.642C132.678 697.642 53.3521 694.559 53.3521 690.774C53.3521 686.989 132.678 683.906 230.5 683.906C328.322 683.906 407.648 686.989 407.648 690.774Z" fill="white"/>
<path opacity="0.2368" d="M400.994 690.774C400.994 694.345 324.659 697.215 230.5 697.215C136.34 697.215 60.0056 694.345 60.0056 690.774C60.0056 687.202 136.34 684.333 230.5 684.333C324.659 684.333 400.994 687.202 400.994 690.774Z" fill="white"/>
<path opacity="0.2632" d="M394.31 690.774C394.31 694.101 320.966 696.787 230.5 696.787C140.034 696.787 66.6899 694.101 66.6899 690.774C66.6899 687.447 140.034 684.76 230.5 684.76C320.966 684.76 394.31 687.447 394.31 690.774Z" fill="white"/>
<path opacity="0.2895" d="M387.656 690.774C387.656 693.857 317.304 696.36 230.5 696.36C143.696 696.36 73.3438 693.857 73.3438 690.774C73.3438 687.691 143.696 685.188 230.5 685.188C317.304 685.188 387.656 687.66 387.656 690.774Z" fill="white"/>
<path opacity="0.3158" d="M380.972 690.774C380.972 693.643 313.611 695.963 230.5 695.963C147.389 695.963 80.0278 693.643 80.0278 690.774C80.0278 687.904 147.389 685.584 230.5 685.584C313.611 685.584 380.972 687.904 380.972 690.774Z" fill="white"/>
<path opacity="0.3421" d="M374.318 690.774C374.318 693.399 309.948 695.536 230.5 695.536C151.052 695.536 86.6816 693.399 86.6816 690.774C86.6816 688.149 151.052 686.012 230.5 686.012C309.948 686.012 374.318 688.149 374.318 690.774Z" fill="white"/>
<path opacity="0.3684" d="M367.634 690.774C367.634 693.155 306.224 695.109 230.5 695.109C154.776 695.109 93.366 693.155 93.366 690.774C93.366 688.362 154.776 686.439 230.5 686.439C306.224 686.439 367.634 688.362 367.634 690.774Z" fill="white"/>
<path opacity="0.3947" d="M360.98 690.774C360.98 692.941 302.562 694.681 230.5 694.681C158.438 694.681 100.02 692.941 100.02 690.774C100.02 688.606 158.438 686.866 230.5 686.866C302.562 686.866 360.98 688.606 360.98 690.774Z" fill="white"/>
<path opacity="0.4211" d="M230.5 694.284C298.871 694.284 354.296 692.713 354.296 690.774C354.296 688.835 298.871 687.263 230.5 687.263C162.129 687.263 106.704 688.835 106.704 690.774C106.704 692.713 162.129 694.284 230.5 694.284Z" fill="white"/>
<path opacity="0.4474" d="M230.5 693.857C295.196 693.857 347.642 692.477 347.642 690.774C347.642 689.071 295.196 687.691 230.5 687.691C165.804 687.691 113.358 689.071 113.358 690.774C113.358 692.477 165.804 693.857 230.5 693.857Z" fill="white"/>
<path opacity="0.4737" d="M230.5 693.43C291.504 693.43 340.958 692.241 340.958 690.774C340.958 689.307 291.504 688.118 230.5 688.118C169.496 688.118 120.042 689.307 120.042 690.774C120.042 692.241 169.496 693.43 230.5 693.43Z" fill="white"/>
<path opacity="0.5" d="M230.5 693.002C287.829 693.002 334.304 692.005 334.304 690.774C334.304 689.543 287.829 688.545 230.5 688.545C173.17 688.545 126.696 689.543 126.696 690.774C126.696 692.005 173.17 693.002 230.5 693.002Z" fill="white"/>
<path opacity="0.0474" d="M442.748 670.718L18.252 672.092L150.747 0.763151L297.831 0L442.748 670.718Z" fill="url(#paint0_linear_2989_243)"/>
<path opacity="0.0947" d="M432.951 669.131L28.0496 670.321L154.135 0.763151L294.962 0L432.951 669.131Z" fill="url(#paint1_linear_2989_243)"/>
<path opacity="0.1421" d="M423.153 667.513L37.8469 668.551L157.553 0.763151L292.093 0L423.153 667.513Z" fill="url(#paint2_linear_2989_243)"/>
<path opacity="0.1895" d="M413.356 665.895L47.6445 666.78L160.941 0.763151L289.224 0L413.356 665.895Z" fill="url(#paint3_linear_2989_243)"/>
<path opacity="0.2368" d="M403.558 664.308L57.4419 665.04L164.329 0.763151L286.355 0L403.558 664.308Z" fill="url(#paint4_linear_2989_243)"/>
<path opacity="0.2842" d="M393.761 662.69L67.2395 663.27L167.748 0.763151L283.486 0L393.761 662.69Z" fill="url(#paint5_linear_2989_243)"/>
<path opacity="0.3316" d="M383.963 661.103L77.0369 661.499L171.135 0.763151L280.586 0L383.963 661.103Z" fill="url(#paint6_linear_2989_243)"/>
<path opacity="0.3789" d="M374.166 659.485L86.865 659.729L174.554 0.763151L277.717 0L374.166 659.485Z" fill="url(#paint7_linear_2989_243)"/>
<path opacity="0.4263" d="M364.368 657.867L96.6624 657.958L177.942 0.763151L274.848 0L364.368 657.867Z" fill="url(#paint8_linear_2989_243)"/>
<path opacity="0.4737" d="M354.571 656.279L106.46 656.188L181.36 0.763151L271.979 0L354.571 656.279Z" fill="url(#paint9_linear_2989_243)"/>
<path opacity="0.5211" d="M344.773 654.661L116.257 654.417L184.748 0.763151L269.11 0L344.773 654.661Z" fill="url(#paint10_linear_2989_243)"/>
<path opacity="0.5684" d="M334.945 653.044L126.055 652.647L188.166 0.763151L266.241 0L334.945 653.044Z" fill="url(#paint11_linear_2989_243)"/>
<path opacity="0.6158" d="M325.148 651.456L135.852 650.876L191.554 0.763151L263.372 0L325.148 651.456Z" fill="url(#paint12_linear_2989_243)"/>
<path opacity="0.6632" d="M315.35 649.838L145.65 649.106L194.973 0.763151L260.503 0L315.35 649.838Z" fill="url(#paint13_linear_2989_243)"/>
<path opacity="0.7105" d="M305.553 648.251L155.447 647.366L198.361 0.763151L257.634 0L305.553 648.251Z" fill="url(#paint14_linear_2989_243)"/>
<path opacity="0.7579" d="M295.756 646.633L165.245 645.595L201.779 0.763151L254.765 0L295.756 646.633Z" fill="url(#paint15_linear_2989_243)"/>
<path opacity="0.8053" d="M285.958 645.015L175.042 643.825L205.167 0.763151L251.896 0L285.958 645.015Z" fill="url(#paint16_linear_2989_243)"/>
<path opacity="0.8526" d="M276.161 643.428L184.84 642.054L208.585 0.763151L249.027 0L276.161 643.428Z" fill="url(#paint17_linear_2989_243)"/>
<path opacity="0.9" d="M266.363 641.81L194.637 640.284L211.973 0.763151L246.127 0L266.363 641.81Z" fill="url(#paint18_linear_2989_243)"/>
<defs>
<linearGradient id="paint0_linear_2989_243" x1="230.504" y1="90.8537" x2="230.504" y2="625.495" gradientUnits="userSpaceOnUse">
<stop stop-color="white"/>
<stop offset="0.0896" stop-color="#F2F2F2"/>
<stop offset="0.2552" stop-color="#D0D0D0"/>
<stop offset="0.4786" stop-color="#989898"/>
<stop offset="0.7479" stop-color="#4D4D4D"/>
<stop offset="1"/>
</linearGradient>
<linearGradient id="paint1_linear_2989_243" x1="230.503" y1="90.615" x2="230.503" y2="623.851" gradientUnits="userSpaceOnUse">
<stop stop-color="white"/>
<stop offset="0.0896" stop-color="#F2F2F2"/>
<stop offset="0.2552" stop-color="#D0D0D0"/>
<stop offset="0.4786" stop-color="#989898"/>
<stop offset="0.7479" stop-color="#4D4D4D"/>
<stop offset="1"/>
</linearGradient>
<linearGradient id="paint2_linear_2989_243" x1="230.504" y1="90.376" x2="230.504" y2="622.206" gradientUnits="userSpaceOnUse">
<stop stop-color="white"/>
<stop offset="0.0896" stop-color="#F2F2F2"/>
<stop offset="0.2552" stop-color="#D0D0D0"/>
<stop offset="0.4786" stop-color="#989898"/>
<stop offset="0.7479" stop-color="#4D4D4D"/>
<stop offset="1"/>
</linearGradient>
<linearGradient id="paint3_linear_2989_243" x1="230.504" y1="90.137" x2="230.504" y2="620.561" gradientUnits="userSpaceOnUse">
<stop stop-color="white"/>
<stop offset="0.0896" stop-color="#F2F2F2"/>
<stop offset="0.2552" stop-color="#D0D0D0"/>
<stop offset="0.4786" stop-color="#989898"/>
<stop offset="0.7479" stop-color="#4D4D4D"/>
<stop offset="1"/>
</linearGradient>
<linearGradient id="paint4_linear_2989_243" x1="230.504" y1="89.8983" x2="230.504" y2="618.916" gradientUnits="userSpaceOnUse">
<stop stop-color="white"/>
<stop offset="0.0896" stop-color="#F2F2F2"/>
<stop offset="0.2552" stop-color="#D0D0D0"/>
<stop offset="0.4786" stop-color="#989898"/>
<stop offset="0.7479" stop-color="#4D4D4D"/>
<stop offset="1"/>
</linearGradient>
<linearGradient id="paint5_linear_2989_243" x1="230.504" y1="89.6593" x2="230.504" y2="617.271" gradientUnits="userSpaceOnUse">
<stop stop-color="white"/>
<stop offset="0.0896" stop-color="#F2F2F2"/>
<stop offset="0.2552" stop-color="#D0D0D0"/>
<stop offset="0.4786" stop-color="#989898"/>
<stop offset="0.7479" stop-color="#4D4D4D"/>
<stop offset="1"/>
</linearGradient>
<linearGradient id="paint6_linear_2989_243" x1="230.504" y1="89.4205" x2="230.504" y2="615.627" gradientUnits="userSpaceOnUse">
<stop stop-color="white"/>
<stop offset="0.0896" stop-color="#F2F2F2"/>
<stop offset="0.2552" stop-color="#D0D0D0"/>
<stop offset="0.4786" stop-color="#989898"/>
<stop offset="0.7479" stop-color="#4D4D4D"/>
<stop offset="1"/>
</linearGradient>
<linearGradient id="paint7_linear_2989_243" x1="230.504" y1="89.1815" x2="230.504" y2="613.982" gradientUnits="userSpaceOnUse">
<stop stop-color="white"/>
<stop offset="0.0896" stop-color="#F2F2F2"/>
<stop offset="0.2552" stop-color="#D0D0D0"/>
<stop offset="0.4786" stop-color="#989898"/>
<stop offset="0.7479" stop-color="#4D4D4D"/>
<stop offset="1"/>
</linearGradient>
<linearGradient id="paint8_linear_2989_243" x1="230.504" y1="88.9425" x2="230.504" y2="612.337" gradientUnits="userSpaceOnUse">
<stop stop-color="white"/>
<stop offset="0.0896" stop-color="#F2F2F2"/>
<stop offset="0.2552" stop-color="#D0D0D0"/>
<stop offset="0.4786" stop-color="#989898"/>
<stop offset="0.7479" stop-color="#4D4D4D"/>
<stop offset="1"/>
</linearGradient>
<linearGradient id="paint9_linear_2989_243" x1="230.504" y1="88.7145" x2="230.504" y2="610.767" gradientUnits="userSpaceOnUse">
<stop stop-color="white"/>
<stop offset="0.0896" stop-color="#F2F2F2"/>
<stop offset="0.2552" stop-color="#D0D0D0"/>
<stop offset="0.4786" stop-color="#989898"/>
<stop offset="0.7479" stop-color="#4D4D4D"/>
<stop offset="1"/>
</linearGradient>
<linearGradient id="paint10_linear_2989_243" x1="230.504" y1="88.4974" x2="230.504" y2="609.272" gradientUnits="userSpaceOnUse">
<stop stop-color="white"/>
<stop offset="0.0896" stop-color="#F2F2F2"/>
<stop offset="0.2552" stop-color="#D0D0D0"/>
<stop offset="0.4786" stop-color="#989898"/>
<stop offset="0.7479" stop-color="#4D4D4D"/>
<stop offset="1"/>
</linearGradient>
<linearGradient id="paint11_linear_2989_243" x1="230.504" y1="88.2801" x2="230.504" y2="607.777" gradientUnits="userSpaceOnUse">
<stop stop-color="white"/>
<stop offset="0.0896" stop-color="#F2F2F2"/>
<stop offset="0.2552" stop-color="#D0D0D0"/>
<stop offset="0.4786" stop-color="#989898"/>
<stop offset="0.7479" stop-color="#4D4D4D"/>
<stop offset="1"/>
</linearGradient>
<linearGradient id="paint12_linear_2989_243" x1="230.504" y1="88.063" x2="230.504" y2="606.282" gradientUnits="userSpaceOnUse">
<stop stop-color="white"/>
<stop offset="0.0896" stop-color="#F2F2F2"/>
<stop offset="0.2552" stop-color="#D0D0D0"/>
<stop offset="0.4786" stop-color="#989898"/>
<stop offset="0.7479" stop-color="#4D4D4D"/>
<stop offset="1"/>
</linearGradient>
<linearGradient id="paint13_linear_2989_243" x1="230.504" y1="87.8457" x2="230.504" y2="604.786" gradientUnits="userSpaceOnUse">
<stop stop-color="white"/>
<stop offset="0.0896" stop-color="#F2F2F2"/>
<stop offset="0.2552" stop-color="#D0D0D0"/>
<stop offset="0.4786" stop-color="#989898"/>
<stop offset="0.7479" stop-color="#4D4D4D"/>
<stop offset="1"/>
</linearGradient>
<linearGradient id="paint14_linear_2989_243" x1="230.504" y1="87.6287" x2="230.504" y2="603.291" gradientUnits="userSpaceOnUse">
<stop stop-color="white"/>
<stop offset="0.0896" stop-color="#F2F2F2"/>
<stop offset="0.2552" stop-color="#D0D0D0"/>
<stop offset="0.4786" stop-color="#989898"/>
<stop offset="0.7479" stop-color="#4D4D4D"/>
<stop offset="1"/>
</linearGradient>
<linearGradient id="paint15_linear_2989_243" x1="230.504" y1="87.4113" x2="230.504" y2="601.796" gradientUnits="userSpaceOnUse">
<stop stop-color="white"/>
<stop offset="0.0896" stop-color="#F2F2F2"/>
<stop offset="0.2552" stop-color="#D0D0D0"/>
<stop offset="0.4786" stop-color="#989898"/>
<stop offset="0.7479" stop-color="#4D4D4D"/>
<stop offset="1"/>
</linearGradient>
<linearGradient id="paint16_linear_2989_243" x1="230.503" y1="87.1943" x2="230.503" y2="600.3" gradientUnits="userSpaceOnUse">
<stop stop-color="white"/>
<stop offset="0.0896" stop-color="#F2F2F2"/>
<stop offset="0.2552" stop-color="#D0D0D0"/>
<stop offset="0.4786" stop-color="#989898"/>
<stop offset="0.7479" stop-color="#4D4D4D"/>
<stop offset="1"/>
</linearGradient>
<linearGradient id="paint17_linear_2989_243" x1="230.504" y1="86.9769" x2="230.504" y2="598.805" gradientUnits="userSpaceOnUse">
<stop stop-color="white"/>
<stop offset="0.0896" stop-color="#F2F2F2"/>
<stop offset="0.2552" stop-color="#D0D0D0"/>
<stop offset="0.4786" stop-color="#989898"/>
<stop offset="0.7479" stop-color="#4D4D4D"/>
<stop offset="1"/>
</linearGradient>
<linearGradient id="paint18_linear_2989_243" x1="230.504" y1="86.7599" x2="230.504" y2="597.31" gradientUnits="userSpaceOnUse">
<stop stop-color="white"/>
<stop offset="0.0896" stop-color="#F2F2F2"/>
<stop offset="0.2552" stop-color="#D0D0D0"/>
<stop offset="0.4786" stop-color="#989898"/>
<stop offset="0.7479" stop-color="#4D4D4D"/>
<stop offset="1"/>
</linearGradient>
</defs>
</svg>
