<svg width="21" height="21" viewBox="0 0 21 21" fill="none" xmlns="http://www.w3.org/2000/svg">
<path d="M19.0841 0.780518H1.29883C1.00403 0.780518 0.721291 0.89763 0.51283 1.10609C0.304368 1.31455 0.187256 1.59729 0.187256 1.8921V19.6774C0.187256 19.9722 0.304368 20.2549 0.51283 20.4634C0.721291 20.6718 1.00403 20.7889 1.29883 20.7889H19.0841C19.3789 20.7889 19.6616 20.6718 19.8701 20.4634C20.0786 20.2549 20.1957 19.9722 20.1957 19.6774V1.8921C20.1957 1.59729 20.0786 1.31455 19.8701 1.10609C19.6616 0.89763 19.3789 0.780518 19.0841 0.780518ZM6.12198 17.8288H3.15184V8.28034H6.12198V17.8288ZM4.63691 6.97646C4.18054 6.97646 3.74287 6.79517 3.42017 6.47247C3.09747 6.14977 2.91618 5.7121 2.91618 5.25573C2.91618 4.79937 3.09747 4.3617 3.42017 4.039C3.74287 3.7163 4.18054 3.53501 4.63691 3.53501C5.09327 3.53501 5.53094 3.7163 5.85364 4.039C6.17634 4.3617 6.35763 4.79937 6.35763 5.25573C6.35763 5.7121 6.17634 6.14977 5.85364 6.47247C5.53094 6.79517 5.09327 6.97646 4.63691 6.97646ZM17.2367 17.8288H14.2698V13.1857C14.2698 12.0786 14.2498 10.6547 12.727 10.6547C11.1819 10.6547 10.9473 11.8618 10.9473 13.1079V17.8299H7.98276V8.28145H10.8284V9.58645H10.8695C11.2641 8.83613 12.2334 8.04469 13.6752 8.04469C16.6809 8.04469 17.2355 10.0211 17.2355 12.5933L17.2367 17.8288Z" fill="white"/>
</svg>
