<svg width="23" height="28" viewBox="0 0 23 28" fill="none" xmlns="http://www.w3.org/2000/svg">
<path d="M11.5781 0.840424C14.2195 0.840424 16.7596 1.80674 18.708 3.53964L19.0898 3.89609C21.0814 5.85227 22.2002 8.5052 22.2002 11.2711C22.2002 14.8787 20.5506 18.7014 17.4248 22.3512L17.1182 22.7047C16.232 23.7038 15.2827 24.6473 14.2764 25.5299L14.1631 25.6285H20.3154C20.5277 25.6286 20.732 25.7018 20.8945 25.8326L20.9619 25.8922C21.1331 26.0604 21.2295 26.2885 21.2295 26.526C21.2294 26.7336 21.1555 26.9339 21.0225 27.0934L20.9619 27.1598C20.7906 27.3279 20.558 27.4224 20.3154 27.4225H2.8418C2.62935 27.4224 2.42436 27.3502 2.26172 27.2193L2.19531 27.1598C2.02408 26.9916 1.92783 26.7634 1.92773 26.526C1.92773 26.3181 2.00151 26.1173 2.13477 25.9576L2.19531 25.8922C2.36665 25.7239 2.59905 25.6285 2.8418 25.6285H8.99414L8.88086 25.5299C8.00028 24.7576 7.16309 23.9388 6.37402 23.0768L6.03906 22.7047C2.70937 18.9491 0.957031 14.9952 0.957031 11.2711C0.957059 8.67809 1.94024 6.1845 3.7041 4.27109L4.06738 3.89609C6.05914 1.9399 8.76094 0.840517 11.5781 0.840424ZM11.5781 2.63437C9.3922 2.63446 7.28976 3.43332 5.67676 4.86777L5.36133 5.16367C3.7122 6.78335 2.78519 8.98007 2.78516 11.2711C2.78516 14.6995 4.47628 17.8402 6.41309 20.3141C8.35055 22.7887 10.5392 24.6024 11.5439 25.3785L11.5781 25.4059L11.6133 25.3785C12.6181 24.6024 14.8058 22.7885 16.7432 20.3141C18.68 17.8402 20.3721 14.6995 20.3721 11.2711C20.372 9.12339 19.5572 7.05851 18.0967 5.47421L17.7959 5.16367C16.1468 3.54399 13.9099 2.63437 11.5781 2.63437ZM10.6426 6.65097C11.457 6.49191 12.2974 6.5441 13.082 6.79843L13.415 6.91953C14.182 7.23162 14.851 7.7333 15.3594 8.37265L15.5674 8.65488C16.0943 9.4294 16.376 10.3398 16.376 11.2711C16.376 12.442 15.9314 13.5681 15.1348 14.4322L14.9707 14.6012C14.0712 15.4847 12.8507 15.982 11.5781 15.982C10.7479 15.982 9.93377 15.7704 9.21484 15.3707L8.91309 15.1871C8.12435 14.6695 7.50944 13.9342 7.14648 13.0738C6.82885 12.3207 6.71647 11.501 6.81738 10.6959L6.87402 10.3521C7.05909 9.43876 7.51581 8.59975 8.18652 7.94101C8.77339 7.36466 9.50074 6.94875 10.2969 6.73203L10.6426 6.65097ZM12.1572 8.41074C11.6535 8.31236 11.1338 8.34421 10.6484 8.50156L10.4424 8.57675C9.96813 8.76977 9.55393 9.07957 9.23926 9.47519L9.11035 9.64999C8.78403 10.1297 8.6094 10.694 8.60938 11.2711C8.60938 11.9481 8.8494 12.6008 9.28223 13.1197L9.47949 13.3336C10.0362 13.8804 10.7912 14.188 11.5781 14.1881C12.0918 14.1881 12.596 14.0576 13.041 13.8102L13.2275 13.6969C13.6548 13.4165 13.9993 13.0324 14.2295 12.5836L14.3213 12.3873C14.5179 11.9208 14.5879 11.4134 14.5254 10.9146L14.4902 10.7018C14.3899 10.2067 14.1608 9.74712 13.8271 9.36679L13.6777 9.20859C13.3144 8.85175 12.8636 8.59461 12.3711 8.46054L12.1572 8.41074Z" fill="white" stroke="white" stroke-width="0.113216"/>
</svg>
