<svg width="21" height="21" viewBox="0 0 21 21" fill="none" xmlns="http://www.w3.org/2000/svg">
<path d="M16.0401 9.78835V9.25793C16.0401 9.17856 16.0401 9.13887 16.0396 9.10531C16.0033 6.56859 13.9557 4.52099 11.419 4.48466C11.3854 4.48417 11.3457 4.48417 11.2663 4.48417H10.7359M19.3553 10.4514V9.52314C19.3553 8.73116 19.3553 8.33517 19.3254 8.00137C19.0018 4.38701 16.1374 1.52256 12.523 1.19895C12.1892 1.16907 11.7932 1.16907 11.0012 1.16907L10.073 1.16907M7.05166 7.94211C6.62668 8.91707 6.84176 10.0528 7.59381 10.8048L9.84119 13.0522C10.5932 13.8043 11.729 14.0194 12.7039 13.5944C13.6789 13.1694 14.8146 13.3845 15.5666 14.1365L16.9339 15.5038C17.0002 15.57 17.0333 15.6032 17.0601 15.6323C17.7193 16.3498 17.7193 17.4526 17.0601 18.17C17.0333 18.1992 17.0002 18.2323 16.9339 18.2986L16.1028 19.1297C15.4261 19.8064 14.4504 20.0906 13.5161 19.8829C7.14977 18.4682 2.17783 13.4963 0.763095 7.12997C0.555465 6.19563 0.839577 5.21997 1.51637 4.54318L2.34745 3.7121C2.41369 3.64586 2.44681 3.61274 2.47599 3.58592C3.19345 2.92668 4.29623 2.92668 5.01368 3.58592C5.04286 3.61274 5.07598 3.64586 5.14222 3.7121L6.50951 5.07938C7.26155 5.83143 7.47664 6.96715 7.05166 7.94211Z" stroke="white" stroke-width="1.40648" stroke-linecap="round"/>
</svg>
