<svg width="21" height="21" viewBox="0 0 21 21" fill="none" xmlns="http://www.w3.org/2000/svg">
<path d="M2.41948 3.09596C2.48837 3.02751 2.52281 2.99329 2.55316 2.96559C3.29929 2.28443 4.44617 2.28443 5.1923 2.96559C5.22265 2.99329 5.25709 3.02751 5.32598 3.09596L6.74793 4.5087C7.53005 5.28575 7.75373 6.45922 7.31176 7.46659C6.86979 8.47396 7.09347 9.64744 7.87559 10.4245L10.2128 12.7466C10.9949 13.5236 12.1761 13.7459 13.19 13.3068C14.2039 12.8677 15.3851 13.0899 16.1672 13.8669L17.5891 15.2797C17.658 15.3481 17.6925 15.3823 17.7204 15.4125C18.406 16.1538 18.406 17.2932 17.7204 18.0345C17.6925 18.0647 17.658 18.0989 17.5891 18.1674L16.7248 19.0261C16.021 19.7254 15.0063 20.0189 14.0346 19.8044C7.41379 18.3426 2.24307 13.2054 0.771775 6.62745C0.555843 5.66205 0.851314 4.65396 1.55517 3.95467L2.41948 3.09596Z" fill="white"/>
<path d="M16.6596 9.37421V8.82616C16.6596 8.74415 16.6596 8.70315 16.6591 8.66846C16.6213 6.04741 14.4918 3.93174 11.8537 3.8942C11.8188 3.8937 11.7775 3.8937 11.695 3.8937H11.1433M20.1073 10.0593V9.10019C20.1073 8.28188 20.1073 7.87272 20.0762 7.52783C19.7397 3.79331 16.7607 0.833623 13.0019 0.499263C12.6547 0.468384 12.2429 0.468383 11.4193 0.468384L10.4539 0.468384M7.31176 7.46659C6.86979 8.47397 7.09347 9.64744 7.87559 10.4245L10.2128 12.7466C10.9949 13.5236 12.1761 13.7459 13.19 13.3068C14.2039 12.8677 15.3851 13.0899 16.1672 13.8669L17.5891 15.2797C17.658 15.3481 17.6925 15.3823 17.7204 15.4125C18.406 16.1538 18.406 17.2932 17.7204 18.0345C17.6925 18.0647 17.658 18.0989 17.5891 18.1674L16.7248 19.0261C16.021 19.7254 15.0063 20.0189 14.0346 19.8044C7.41379 18.3426 2.24307 13.2054 0.771775 6.62745C0.555843 5.66205 0.851314 4.65396 1.55517 3.95467L2.41948 3.09596C2.48837 3.02751 2.52281 2.99329 2.55316 2.96559C3.29929 2.28443 4.44617 2.28443 5.1923 2.96559C5.22265 2.99329 5.25709 3.02751 5.32598 3.09596L6.74793 4.5087C7.53005 5.28575 7.75373 6.45922 7.31176 7.46659Z" stroke="white" stroke-width="0.715744" stroke-linecap="round"/>
</svg>
