<svg width="18" height="20" viewBox="0 0 18 20" fill="none" xmlns="http://www.w3.org/2000/svg">
<path d="M12.6359 1.34587L12.1671 0.621948H9.32987V7.14194L9.3202 13.5105C9.32504 13.5578 9.32987 13.6099 9.32987 13.6572C9.32987 15.2517 8.00552 16.5529 6.37183 16.5529C4.73814 16.5529 3.41379 15.2564 3.41379 13.6572C3.41379 12.0627 4.73814 10.7615 6.37183 10.7615C6.71017 10.7615 7.03884 10.823 7.34334 10.9271V7.74757C7.02917 7.69553 6.70534 7.66714 6.37183 7.66714C3.00295 7.67187 0.257584 10.3594 0.257584 13.6619C0.257584 16.9645 3.00295 19.652 6.37667 19.652C9.75038 19.652 12.4957 16.9645 12.4957 13.6619V6.08682C13.7186 7.28389 15.2991 8.45256 17.0488 8.82635V5.57582C15.1493 4.75254 13.2594 2.32055 12.6359 1.34587Z" fill="#BC1616"/>
</svg>
