<svg width="23" height="19" viewBox="0 0 23 19" fill="none" xmlns="http://www.w3.org/2000/svg">
<path d="M20.577 5.33498C20.5915 5.5295 20.5915 5.72292 20.5915 5.91633C20.5915 11.8355 16.0863 18.6561 7.85279 18.6561C5.31617 18.6561 2.95962 17.9214 0.976562 16.6453C1.33671 16.6864 1.68353 16.7009 2.05813 16.7009C4.07341 16.7057 6.03163 16.0319 7.61714 14.7878C6.68277 14.7709 5.777 14.4627 5.02631 13.9061C4.27562 13.3495 3.71748 12.5724 3.42982 11.6832C3.7066 11.7243 3.9845 11.7521 4.27573 11.7521C4.67701 11.7521 5.08051 11.6965 5.45511 11.5998C4.44109 11.3951 3.52927 10.8455 2.87472 10.0444C2.22016 9.24331 1.86326 8.24025 1.86471 7.20577V7.15019C2.46163 7.48255 3.15415 7.69041 3.88779 7.7182C3.27318 7.30979 2.76923 6.7556 2.42088 6.10507C2.07253 5.45454 1.89063 4.7279 1.89139 3.98997C1.89139 3.15851 2.1126 2.39596 2.50054 1.73124C3.62561 3.11518 5.02883 4.24737 6.61931 5.05448C8.20979 5.86159 9.95208 6.32563 11.7333 6.41654C11.6644 6.08307 11.6222 5.73737 11.6222 5.39056C11.6219 4.80249 11.7375 4.22013 11.9624 3.67677C12.1873 3.13341 12.5171 2.6397 12.9329 2.22388C13.3487 1.80805 13.8424 1.47826 14.3858 1.25335C14.9292 1.02844 15.5115 0.912825 16.0996 0.913117C17.389 0.913117 18.5529 1.45334 19.371 2.32705C20.3734 2.1332 21.3346 1.76728 22.2122 1.24548C21.878 2.28015 21.1781 3.15751 20.2436 3.71318C21.1326 3.61178 22.0015 3.37799 22.8213 3.01956C22.209 3.91227 21.4502 4.69509 20.577 5.33498Z" fill="white"/>
</svg>
