<svg width="68" height="68" viewBox="0 0 68 68" fill="none" xmlns="http://www.w3.org/2000/svg">
<rect x="0.702148" width="67.2" height="67.2" rx="8.4" fill="#C81717"/>
<path d="M43.7521 39.8807H24.8521C24.488 39.8807 24.1507 40.0694 23.9589 40.3785C23.7672 40.6882 23.7498 41.0747 23.9128 41.4003L26.0128 45.6003C26.1912 45.9561 26.5542 46.1807 26.9521 46.1807H41.6521C42.0499 46.1807 42.4129 45.9561 42.5913 45.6003L44.6913 41.4003C44.8543 41.0747 44.8369 40.6882 44.6452 40.3785C44.4534 40.0693 44.1161 39.8807 43.7521 39.8807ZM41.003 44.0807H27.6011L26.5511 41.9807H42.053L41.003 44.0807Z" fill="white"/>
<path d="M59.5018 31.521H56.3518C56.0263 31.521 55.7113 31.6785 55.5118 31.941L53.5692 34.5345L50.4718 25.2735C50.0518 23.982 48.8442 23.121 47.4898 23.121H21.1138C19.7593 23.121 18.5518 23.982 18.1317 25.2735L15.0343 34.5345L13.0917 31.941C12.8922 31.6785 12.5772 31.521 12.2517 31.521H9.10176C8.52427 31.521 8.05176 31.9935 8.05176 32.571V36.771C8.05176 37.3485 8.52427 37.821 9.10176 37.821H11.6113L10.6348 38.409C9.83677 38.8815 9.32228 39.7005 9.16476 40.593C9.13329 40.698 9.10176 40.8135 9.10176 40.929C9.10176 40.9605 9.11227 40.9815 9.11227 41.0025C9.11227 41.034 9.10176 41.076 9.10176 41.1075V47.229C9.10176 48.972 10.5192 50.379 12.2518 50.379H14.3518V51.429C14.3518 54.327 16.7037 56.679 19.6018 56.679C22.4998 56.679 24.8518 54.327 24.8518 51.429V50.379H43.7518V51.429C43.7518 54.327 46.1037 56.679 49.0018 56.679C51.8998 56.679 54.2518 54.327 54.2518 51.429V50.379H56.3518C58.0843 50.379 59.5018 48.972 59.5018 47.229V40.2885C59.5018 39.3015 59.0503 38.409 58.3047 37.821H59.5018C60.0792 37.821 60.5518 37.3485 60.5518 36.771V32.571C60.5518 31.9935 60.0792 31.521 59.5018 31.521ZM20.1162 25.935C20.2633 25.5045 20.6623 25.221 21.1138 25.221H47.4898C47.9412 25.221 48.3403 25.5045 48.4873 25.935L51.7422 35.721H49.9572C49.4533 32.7495 46.8702 30.471 43.7518 30.471C40.6333 30.471 38.0503 32.7495 37.5463 35.721H16.8613L20.1162 25.935ZM47.8047 35.721H39.6988C40.1713 33.915 41.7988 32.571 43.7518 32.571C45.7048 32.571 47.3322 33.915 47.8047 35.721ZM10.1518 35.721V33.621H11.7268L13.3018 35.721H10.1518ZM22.7518 51.429C22.7518 53.172 21.3343 54.579 19.6018 54.579C17.8692 54.579 16.4518 53.172 16.4518 51.429V50.379H22.7518V51.429ZM52.1518 51.429C52.1518 53.172 50.7343 54.579 49.0018 54.579C47.2692 54.579 45.8518 53.172 45.8518 51.429V50.379H52.1518V51.429ZM57.4018 47.229C57.4018 47.8065 56.9292 48.279 56.3518 48.279H12.2518C11.6743 48.279 11.2018 47.8065 11.2018 47.229V41.979H13.3018V45.129C13.3018 45.7065 13.7743 46.179 14.3518 46.179H21.7018C22.0692 46.179 22.4052 45.99 22.5942 45.6855C22.7833 45.3705 22.8042 44.982 22.6363 44.6565L22.2792 43.9425C21.0297 41.433 18.5098 39.879 15.7062 39.879H12.2623L15.6958 37.821H53.0023L56.7403 39.3225C57.0028 39.4275 57.2023 39.627 57.3072 39.879H52.8973C50.0937 39.879 47.5738 41.433 46.3243 43.9425L45.9672 44.6565C45.7993 44.982 45.8202 45.3705 46.0093 45.6855C46.1983 45.99 46.5343 46.179 46.9018 46.179H54.2518C54.8293 46.179 55.3018 45.7065 55.3018 45.129V41.979H57.4018L57.4018 47.229ZM15.4018 44.079V41.979H15.7062C17.3863 41.979 18.9297 42.7665 19.9062 44.079H15.4018ZM53.2018 41.979V44.079H48.6973C49.6738 42.7665 51.2172 41.979 52.8973 41.979H53.2018ZM58.4518 35.721H55.3018L56.8768 33.621H58.4518V35.721Z" fill="white"/>
<path d="M9.79267 24.1081C10.9688 24.5356 11.8875 25.4549 12.3151 26.63C12.4659 27.0448 12.8596 27.3211 13.3016 27.3211C13.7435 27.3211 14.1372 27.0448 14.288 26.63C14.7156 25.4549 15.6343 24.5356 16.8104 24.1081C17.2257 23.9568 17.5016 23.5625 17.5016 23.1211C17.5016 22.6797 17.2257 22.2854 16.8105 22.1342C15.6343 21.7066 14.7156 20.7873 14.288 19.6122C14.1373 19.1975 13.7435 18.9211 13.3016 18.9211C12.8596 18.9211 12.4659 19.1975 12.3151 19.6122C11.8875 20.7873 10.9688 21.7066 9.79268 22.1342C9.3774 22.2854 9.10156 22.6797 9.10156 23.1211C9.10156 23.5625 9.3774 23.9568 9.79267 24.1081ZM13.3016 22.0983C13.602 22.4772 13.9455 22.8207 14.3249 23.1211C13.9455 23.4215 13.602 23.7651 13.3016 24.1439C13.0011 23.7651 12.6576 23.4215 12.2782 23.1211C12.6576 22.8207 13.0011 22.4772 13.3016 22.0983Z" fill="white"/>
<path d="M16.0927 15.7081C17.2688 16.1356 18.1876 17.0549 18.6152 18.23C18.7659 18.6448 19.1597 18.9211 19.6016 18.9211C20.0435 18.9211 20.4373 18.6448 20.588 18.23C21.0156 17.0549 21.9344 16.1356 23.1105 15.7081C23.5258 15.5568 23.8016 15.1625 23.8016 14.7211C23.8016 14.2797 23.5258 13.8854 23.1105 13.7342C21.9344 13.3066 21.0156 12.3873 20.588 11.2122C20.4373 10.7975 20.0436 10.5211 19.6016 10.5211C19.1597 10.5211 18.7659 10.7975 18.6152 11.2122C18.1876 12.3873 17.2688 13.3066 16.0927 13.7342C15.6774 13.8854 15.4016 14.2797 15.4016 14.7211C15.4016 15.1625 15.6774 15.5568 16.0927 15.7081ZM19.6016 13.6983C19.902 14.0772 20.2456 14.4207 20.625 14.7211C20.2456 15.0216 19.902 15.3651 19.6016 15.7439C19.3012 15.3651 18.9577 15.0216 18.5783 14.7211C18.9577 14.4207 19.3012 14.0772 19.6016 13.6983Z" fill="white"/>
<path d="M37.0925 15.7081C38.2686 16.1356 39.1874 17.0549 39.6149 18.23C39.7657 18.6448 40.1594 18.9211 40.6014 18.9211C41.0433 18.9211 41.4371 18.6448 41.5878 18.23C42.0154 17.0549 42.9341 16.1356 44.1102 15.7081C44.5255 15.5568 44.8014 15.1625 44.8014 14.7211C44.8014 14.2797 44.5255 13.8854 44.1103 13.7342C42.9341 13.3066 42.0154 12.3873 41.5878 11.2122C41.4371 10.7975 41.0433 10.5211 40.6014 10.5211C40.1594 10.5211 39.7657 10.7975 39.6149 11.2122C39.1874 12.3873 38.2686 13.3066 37.0925 13.7342C36.6772 13.8854 36.4014 14.2797 36.4014 14.7211C36.4014 15.1625 36.6772 15.5568 37.0925 15.7081ZM40.6014 13.6983C40.9018 14.0772 41.2453 14.4207 41.6247 14.7211C41.2453 15.0216 40.9018 15.3651 40.6014 15.7439C40.3009 15.3651 39.9574 15.0216 39.578 14.7211C39.9574 14.4207 40.3009 14.0772 40.6014 13.6983Z" fill="white"/>
<path d="M49.6931 22.008C50.8692 22.4356 51.7879 23.3549 52.2155 24.53C52.3662 24.9448 52.76 25.2211 53.2019 25.2211C53.6439 25.2211 54.0376 24.9448 54.1884 24.53C54.616 23.3549 55.5347 22.4356 56.7108 22.008C57.1261 21.8568 57.402 21.4625 57.402 21.0211C57.402 20.5797 57.1261 20.1854 56.7108 20.0342C55.5347 19.6066 54.616 18.6873 54.1884 17.5122C54.0376 17.0974 53.6439 16.8211 53.202 16.8211C52.76 16.8211 52.3663 17.0974 52.2155 17.5122C51.7879 18.6873 50.8692 19.6066 49.6931 20.0342C49.2778 20.1854 49.002 20.5797 49.002 21.0211C49.002 21.4625 49.2778 21.8568 49.6931 22.008ZM53.202 19.9983C53.5024 20.3772 53.8459 20.7207 54.2253 21.0211C53.8459 21.3215 53.5024 21.6651 53.202 22.0439C52.9015 21.6651 52.558 21.3215 52.1786 21.0211C52.558 20.7207 52.9015 20.3772 53.202 19.9983Z" fill="white"/>
</svg>
