<svg width="68" height="68" viewBox="0 0 68 68" fill="none" xmlns="http://www.w3.org/2000/svg">
<rect x="0.702148" width="67.2" height="67.2" rx="8.4" fill="#C81717"/>
<path d="M59.5019 26.1352C55.046 26.1352 52.2882 22.3966 52.2882 18.9324C52.2882 17.684 52.6195 16.475 53.2721 15.3394C53.5613 14.8369 53.3885 14.1961 52.8866 13.9064L41.9662 7.60641C41.7242 7.46747 41.4376 7.42901 41.1694 7.50182C40.9003 7.57411 40.6711 7.75048 40.5321 7.99196C39.2366 10.2401 36.9074 11.5824 34.3019 11.5824C31.6964 11.5824 29.3672 10.2401 28.0716 7.99196C27.9327 7.75048 27.7035 7.57411 27.4343 7.50182C27.1641 7.42901 26.8781 7.46747 26.6376 7.60641L15.7172 13.9064C15.2153 14.1961 15.0425 14.8369 15.3316 15.3394C15.9843 16.475 16.3155 17.6839 16.3155 18.9324C16.3155 22.3967 13.5577 26.1352 9.10188 26.1352C8.52202 26.1352 8.05188 26.6054 8.05188 27.1852V33.4852C8.05188 34.0651 8.52202 34.5352 9.10188 34.5352H17.5019C18.0817 34.5352 18.5519 34.0651 18.5519 33.4852C18.5519 24.8007 25.6173 17.7352 34.3019 17.7352C42.9864 17.7352 50.0519 24.8007 50.0519 33.4852C50.0519 34.0651 50.522 34.5352 51.1019 34.5352H59.5019C60.0817 34.5352 60.5519 34.0651 60.5519 33.4852V27.1852C60.5519 26.6054 60.0817 26.1352 59.5019 26.1352ZM58.4519 32.4352H52.1211C51.5756 23.0796 43.7919 15.6352 34.3019 15.6352C24.8119 15.6352 17.0282 23.0796 16.4826 32.4352H10.1519V28.1763C14.7954 27.6538 18.4155 23.7076 18.4155 18.9324C18.4155 17.6537 18.151 16.412 17.6275 15.2287L26.8268 9.92175C28.5669 12.2945 31.2918 13.6824 34.3019 13.6824C37.3119 13.6824 40.0369 12.2945 41.777 9.92175L50.9763 15.2287C50.4528 16.412 50.1883 17.6537 50.1883 18.9324C50.1883 23.7076 53.8084 27.6538 58.4519 28.1763V32.4352Z" fill="white"/>
<path d="M57.7799 49.8966C56.8769 48.9936 55.8059 48.2901 54.6509 47.8281C55.6904 46.8621 56.3519 45.5076 56.3519 43.9851C56.3519 41.0871 53.9999 38.7351 51.1019 38.7351C48.2039 38.7351 45.8519 41.0871 45.8519 43.9851C45.8519 45.5181 46.5239 46.8831 47.5634 47.8386C45.4529 48.6996 43.6994 50.3061 42.6599 52.3536C42.3764 51.9756 42.0719 51.6081 41.7254 51.2721C40.7069 50.2431 39.4994 49.4556 38.1869 48.9306C39.3943 47.9751 40.2448 46.5996 40.5073 45.0141C40.5388 45.0246 40.5703 45.0351 40.6017 45.0351C41.1722 45.0357 41.6519 44.5525 41.6519 43.9851V38.7351C41.6519 36.4146 39.7724 34.5351 37.4519 34.5351H31.1519C29.7344 34.5351 28.5269 35.4801 28.1384 36.7716C26.8469 37.1601 25.9019 38.3676 25.9019 39.7851V43.0086C25.9019 43.5756 26.1749 44.1006 26.6264 44.4366C27.0359 44.7306 27.5609 44.8146 28.0438 44.7096C28.2014 46.1061 28.8313 47.4186 29.8499 48.4476C30.0284 48.6261 30.2068 48.7836 30.4063 48.9306C29.0938 49.4556 27.8969 50.2431 26.8889 51.2616C26.5423 51.6081 26.2379 51.9756 25.9438 52.3536C24.9044 50.3061 23.1509 48.6996 21.0404 47.8386C22.0799 46.8831 22.7519 45.5181 22.7519 43.9851C22.7519 41.0871 20.3999 38.7351 17.5019 38.7351C14.6039 38.7351 12.2519 41.0871 12.2519 43.9851C12.2519 45.5076 12.9134 46.8621 13.9529 47.8281C12.7979 48.3006 11.7269 48.9936 10.8134 49.9071C9.02837 51.6921 8.05188 54.0651 8.05188 56.5851V58.6851C8.05188 59.2626 8.52439 59.7351 9.10188 59.7351H30.1019C30.6794 59.7351 31.1519 59.2626 31.1519 58.6851C31.1519 58.1076 30.6794 57.6351 30.1019 57.6351H25.9649C26.1959 55.7871 27.0254 54.0756 28.3694 52.7421C29.9444 51.1566 32.0549 50.2851 34.3019 50.2851C36.5489 50.2851 38.6594 51.1566 40.2448 52.7526C41.5784 54.0861 42.4078 55.7871 42.6389 57.6351H38.5019C37.9244 57.6351 37.4519 58.1076 37.4519 58.6851C37.4519 59.2626 37.9244 59.7351 38.5019 59.7351H59.5019C60.0794 59.7351 60.5519 59.2626 60.5519 58.6851V56.5851C60.5519 54.0651 59.5754 51.6921 57.7799 49.8966ZM17.5019 40.8351C19.2344 40.8351 20.6519 42.2526 20.6519 43.9851C20.6519 45.7176 19.2344 47.1351 17.5019 47.1351C15.7693 47.1351 14.3519 45.7176 14.3519 43.9851C14.3519 42.2527 15.7693 40.8351 17.5019 40.8351ZM23.8544 57.6351H10.1519V56.5851C10.1519 54.6321 10.9183 52.7841 12.2938 51.3876C13.7009 50.0016 15.5489 49.2351 17.5019 49.2351C20.8198 49.2351 23.7389 51.5241 24.5789 54.6951C24.2009 55.6296 23.9489 56.6166 23.8544 57.6351ZM28.0019 42.5046V39.7851C28.0019 39.2076 28.4744 38.7351 29.0519 38.7351C29.6294 38.7351 30.1019 38.2626 30.1019 37.6851C30.1019 37.1076 30.5744 36.6351 31.1519 36.6351H37.4519C38.6068 36.6351 39.5519 37.5801 39.5519 38.7351V41.8116C38.4494 41.1711 37.1894 40.8351 35.8769 40.8351H35.6039C34.2284 40.8351 32.8529 40.5096 31.6244 39.9006C31.3724 39.7746 31.0889 39.7536 30.8159 39.8376C30.5534 39.9321 30.3328 40.1211 30.2173 40.3626C29.7344 41.3181 28.9573 42.0636 28.0019 42.5046ZM34.3019 48.1851C33.1784 48.1851 32.1284 47.7441 31.3303 46.9671C30.5428 46.1586 30.1019 45.1086 30.1019 43.9851V43.6911C30.6688 43.2606 31.1624 42.7566 31.5719 42.1686C32.8529 42.6726 34.2284 42.9351 35.6039 42.9351H35.8769C36.8219 42.9351 37.7039 43.1976 38.5019 43.6596V43.9851C38.5019 46.3056 36.6224 48.1851 34.3019 48.1851ZM51.1019 40.8351C52.8344 40.8351 54.2519 42.2526 54.2519 43.9851C54.2519 45.7176 52.8344 47.1351 51.1019 47.1351C49.3693 47.1351 47.9519 45.7176 47.9519 43.9851C47.9519 42.2527 49.3693 40.8351 51.1019 40.8351ZM58.4519 57.6351H44.7494C44.6548 56.6166 44.4029 55.6296 44.0249 54.6951C44.8649 51.5136 47.7839 49.2351 51.1019 49.2351C53.0549 49.2351 54.9029 50.0016 56.2994 51.3771C57.6854 52.7841 58.4519 54.6321 58.4519 56.5851V57.6351Z" fill="white"/>
<path d="M32.2018 32.4353H36.4018C36.9816 32.4353 37.4518 31.9652 37.4518 31.3853V26.1353H38.5018C38.9263 26.1353 39.3092 25.8795 39.4718 25.4872C39.6343 25.0945 39.5446 24.6433 39.2441 24.3429L35.0441 20.1429C34.634 19.7328 33.9695 19.7328 33.5594 20.1429L29.3594 24.3429C29.0589 24.6433 28.9692 25.0945 29.1317 25.4872C29.2943 25.8795 29.6772 26.1353 30.1018 26.1353H31.1518V31.3853C31.1518 31.9652 31.6219 32.4353 32.2018 32.4353ZM34.3018 22.3701L36.0331 24.1019C35.6353 24.2511 35.3518 24.6351 35.3518 25.0853V30.3353H33.2518V25.0853C33.2518 24.6351 32.9682 24.2511 32.5704 24.1019L34.3018 22.3701Z" fill="white"/>
<path d="M34.5406 57.6623C33.9758 57.5308 33.4113 57.882 33.2798 58.4468C33.1482 59.0116 33.4995 59.5761 34.0643 59.7076C34.629 59.8391 35.1935 59.4879 35.3251 58.9231C35.4566 58.3583 35.1054 57.7938 34.5406 57.6623Z" fill="white"/>
</svg>
