<svg width="68" height="68" viewBox="0 0 68 68" fill="none" xmlns="http://www.w3.org/2000/svg">
<rect x="0.702148" width="67.2" height="67.2" rx="8.4" fill="#C81717"/>
<path d="M59.5035 28.3502C60.081 28.3502 60.5535 27.8777 60.5535 27.3002V15.7502C60.5535 15.4667 60.438 15.2042 60.249 15.0047L52.899 7.6547C52.6995 7.46571 52.437 7.35022 52.1535 7.35022H23.8035C22.0709 7.35022 20.6535 8.7677 20.6535 10.5002V34.6502H15.4035C13.986 34.6502 12.7785 35.5952 12.39 36.8867C11.0985 37.2752 10.1535 38.4827 10.1535 39.9002V43.1237C10.1535 43.6907 10.4265 44.2157 10.878 44.5517C11.2875 44.8457 11.8125 44.9297 12.2954 44.8247C12.453 46.2212 13.0829 47.5337 14.1015 48.5627C14.28 48.7412 14.469 48.8987 14.6685 49.0562C10.794 50.6102 8.05347 54.3902 8.05347 58.8002C8.05347 59.3777 8.52598 59.8502 9.10347 59.8502H57.4035C59.136 59.8502 60.5535 58.4327 60.5535 56.7002V35.7002C60.5535 35.1227 60.081 34.6502 59.5035 34.6502C58.926 34.6502 58.4535 35.1227 58.4535 35.7002V56.7002C58.4535 57.2777 57.981 57.7502 57.4035 57.7502H29.001C28.602 53.7917 25.998 50.4737 22.4385 49.0562C23.6459 48.1007 24.4964 46.7147 24.7589 45.1292C24.7905 45.1397 24.8219 45.1502 24.8535 45.1502C24.99 45.1502 25.1265 45.1292 25.2525 45.0662C25.6515 44.9087 25.9035 44.5202 25.9035 44.1002V38.8502C25.9035 36.8972 24.5594 35.2697 22.7535 34.7972V10.5002C22.7535 9.92273 23.226 9.45022 23.8035 9.45022H51.1035V15.7502C51.1035 16.3277 51.576 16.8002 52.1535 16.8002H58.4535V27.3002C58.4535 27.8777 58.926 28.3502 59.5035 28.3502ZM26.8905 57.7502H10.2165C10.7415 53.6132 14.28 50.4002 18.5535 50.4002C22.827 50.4002 26.3655 53.6132 26.8905 57.7502ZM22.7535 44.1002C22.7535 46.4207 20.874 48.3002 18.5535 48.3002C17.43 48.3002 16.38 47.8592 15.5819 47.0822C14.7944 46.2737 14.3535 45.2237 14.3535 44.1002V43.8062C14.9204 43.3757 15.414 42.8717 15.8235 42.2837C17.1045 42.7877 18.48 43.0502 19.8555 43.0502H20.1285C21.063 43.0502 21.9555 43.3127 22.7535 43.7747V44.1002ZM23.8035 38.8502V41.9267C22.701 41.2862 21.441 40.9502 20.1285 40.9502H19.8555C18.48 40.9502 17.1045 40.6247 15.876 40.0157C15.351 39.7532 14.7209 39.9632 14.4689 40.4777C13.986 41.4332 13.2089 42.1787 12.2535 42.6197V39.9002C12.2535 39.3227 12.726 38.8502 13.3035 38.8502C13.8809 38.8502 14.3535 38.3777 14.3535 37.8002C14.3535 37.2227 14.826 36.7502 15.4035 36.7502H21.7035C22.8584 36.7502 23.8035 37.6952 23.8035 38.8502ZM53.2035 14.7002V10.9307L56.973 14.7002H53.2035Z" fill="white"/>
<path d="M25.9033 23.1002H30.1033C30.6836 23.1002 31.1533 22.63 31.1533 22.0502V17.8502C31.1533 17.2703 30.6836 16.8002 30.1033 16.8002H25.9033C25.3229 16.8002 24.8533 17.2703 24.8533 17.8502V22.0502C24.8533 22.63 25.3229 23.1002 25.9033 23.1002ZM26.9533 18.9002H29.0533V21.0002H26.9533V18.9002Z" fill="white"/>
<path d="M34.3035 18.9002H47.9535C48.5339 18.9002 49.0035 18.4301 49.0035 17.8502C49.0035 17.2703 48.5339 16.8002 47.9535 16.8002H34.3035C33.7232 16.8002 33.2535 17.2703 33.2535 17.8502C33.2535 18.4301 33.7232 18.9002 34.3035 18.9002Z" fill="white"/>
<path d="M34.3035 23.1001H47.9535C48.5339 23.1001 49.0035 22.63 49.0035 22.0501C49.0035 21.4702 48.5339 21.0001 47.9535 21.0001H34.3035C33.7232 21.0001 33.2535 21.4702 33.2535 22.0501C33.2535 22.63 33.7232 23.1001 34.3035 23.1001Z" fill="white"/>
<path d="M24.8533 30.4503C24.8533 31.0302 25.3229 31.5003 25.9033 31.5003H30.1033C30.6836 31.5003 31.1533 31.0302 31.1533 30.4503V26.2503C31.1533 25.6705 30.6836 25.2003 30.1033 25.2003H25.9033C25.3229 25.2003 24.8533 25.6705 24.8533 26.2503V30.4503ZM26.9533 27.3003H29.0533V29.4003H26.9533V27.3003Z" fill="white"/>
<path d="M34.3035 27.3002H47.9535C48.5339 27.3002 49.0035 26.8301 49.0035 26.2502C49.0035 25.6703 48.5339 25.2002 47.9535 25.2002H34.3035C33.7232 25.2002 33.2535 25.6703 33.2535 26.2502C33.2535 26.8301 33.7232 27.3002 34.3035 27.3002Z" fill="white"/>
<path d="M34.3035 31.5001H47.9535C48.5339 31.5001 49.0035 31.0299 49.0035 30.4501C49.0035 29.8702 48.5339 29.4001 47.9535 29.4001H34.3035C33.7232 29.4001 33.2535 29.8702 33.2535 30.4501C33.2535 31.0299 33.7232 31.5001 34.3035 31.5001Z" fill="white"/>
<path d="M28.0039 35.7002H47.9539C48.5342 35.7002 49.0039 35.2301 49.0039 34.6502C49.0039 34.0704 48.5342 33.6002 47.9539 33.6002H28.0039C27.4235 33.6002 26.9539 34.0704 26.9539 34.6502C26.9539 35.2301 27.4235 35.7002 28.0039 35.7002Z" fill="white"/>
<path d="M46.1603 50.0926C46.3654 50.2977 46.634 50.4002 46.9027 50.4002C47.1713 50.4002 47.44 50.2977 47.6451 50.0926L51.8451 45.8926C52.2552 45.4824 52.2552 44.818 51.8451 44.4078C51.4349 43.9977 50.7704 43.9977 50.3603 44.4078L46.9027 47.8655L45.5451 46.5078C45.1349 46.0977 44.4704 46.0977 44.0603 46.5078C43.6501 46.918 43.6501 47.5824 44.0603 47.9926L46.1603 50.0926Z" fill="white"/>
<path d="M47.9536 55.6502C52.5853 55.6502 56.3536 51.8819 56.3536 47.2502C56.3536 42.6185 52.5853 38.8502 47.9536 38.8502C43.3219 38.8502 39.5536 42.6185 39.5536 47.2502C39.5536 51.8819 43.3219 55.6502 47.9536 55.6502ZM47.9536 40.9502C51.4276 40.9502 54.2536 43.7762 54.2536 47.2502C54.2536 50.7242 51.4276 53.5502 47.9536 53.5502C44.4796 53.5502 41.6536 50.7242 41.6536 47.2502C41.6536 43.7762 44.4796 40.9502 47.9536 40.9502Z" fill="white"/>
<path d="M59.7412 30.4773C59.1765 30.3458 58.612 30.697 58.4805 31.2618C58.349 31.8265 58.7002 32.391 59.265 32.5225C59.8298 32.654 60.3942 32.3028 60.5257 31.738C60.6573 31.1733 60.306 30.6088 59.7412 30.4773Z" fill="white"/>
</svg>
