<svg width="53" height="53" viewBox="0 0 53 53" fill="none" xmlns="http://www.w3.org/2000/svg">
<path d="M40.6349 53H12.3651C7.53721 48.1721 4.82786 45.4628 0 40.6349V12.3651C4.82786 7.53721 7.53721 4.82786 12.3651 0H40.6349L53 12.3651V40.6349L40.6349 53Z" fill="white"/>
<path d="M15.5949 16.8383C15.689 16.7448 15.736 16.6981 15.7775 16.6603C16.7964 15.73 18.3626 15.73 19.3816 16.6603C19.423 16.6981 19.47 16.7448 19.5641 16.8383L21.506 18.7676C22.5741 19.8287 22.8795 21.4313 22.276 22.807C21.6724 24.1827 21.9779 25.7852 23.0459 26.8464L26.2377 30.0175C27.3058 31.0787 28.9188 31.3822 30.3035 30.7825C31.6881 30.1828 33.3011 30.4863 34.3692 31.5475L36.3111 33.4768C36.4051 33.5702 36.4522 33.617 36.4903 33.6581C37.4265 34.6705 37.4265 36.2266 36.4903 37.2389C36.4522 37.2801 36.4051 37.3268 36.3111 37.4203L35.1307 38.593C34.1695 39.5479 32.7839 39.9488 31.4569 39.6559C22.4153 37.6596 15.354 30.6441 13.3448 21.661C13.0499 20.3426 13.4534 18.966 14.4146 18.011L15.5949 16.8383Z" fill="#C81717"/>
<path d="M35.0416 25.4121V24.6636C35.0416 24.5517 35.0416 24.4957 35.0409 24.4483C34.9894 20.8689 32.0813 17.9797 28.4786 17.9284C28.4309 17.9277 28.3745 17.9277 28.2618 17.9277H27.5085M39.75 26.3476V25.0379C39.75 23.9204 39.75 23.3616 39.7076 22.8906C39.248 17.7906 35.1798 13.7488 30.0465 13.2922C29.5725 13.25 29.0101 13.25 27.8853 13.25L26.567 13.25M22.276 22.807C21.6724 24.1827 21.9779 25.7852 23.0459 26.8464L26.2377 30.0175C27.3058 31.0787 28.9188 31.3822 30.3035 30.7825C31.6881 30.1828 33.3011 30.4863 34.3692 31.5475L36.3111 33.4768C36.4051 33.5702 36.4522 33.617 36.4903 33.6581C37.4265 34.6705 37.4265 36.2266 36.4903 37.2389C36.4522 37.2801 36.4051 37.3268 36.3111 37.4203L35.1307 38.593C34.1695 39.5479 32.7839 39.9488 31.4569 39.6559C22.4153 37.6596 15.354 30.6441 13.3448 21.661C13.0499 20.3426 13.4534 18.966 14.4146 18.011L15.5949 16.8383C15.689 16.7448 15.736 16.6981 15.7775 16.6603C16.7964 15.73 18.3626 15.73 19.3816 16.6603C19.423 16.6981 19.47 16.7448 19.5641 16.8383L21.506 18.7676C22.5741 19.8287 22.8795 21.4313 22.276 22.807Z" stroke="#C81717" stroke-width="1.69617" stroke-linecap="round"/>
</svg>
