<svg width="173" height="38" viewBox="0 0 173 38" fill="none" xmlns="http://www.w3.org/2000/svg">
<rect x="0.5" y="0.5" width="172" height="37" stroke="#E1E1E1"/>
<path d="M129 0H173V38H129V0Z" fill="#C81717"/>
<path d="M26.418 15.8789L30.3281 16.4531C30.6562 16.5078 30.9297 16.7266 31.0391 17.0547C31.1484 17.3555 31.0664 17.7109 30.8203 17.9297L27.9766 20.7461L28.6602 24.7383C28.7148 25.0664 28.5781 25.3945 28.3047 25.5859C28.0312 25.8047 27.6758 25.8047 27.375 25.668L23.875 23.7812L20.3477 25.668C20.0742 25.8047 19.6914 25.8047 19.4453 25.5859C19.1719 25.3945 19.0352 25.0664 19.0898 24.7383L19.7461 20.7461L16.9023 17.9297C16.6562 17.7109 16.5742 17.3555 16.6836 17.0547C16.793 16.7266 17.0664 16.5078 17.3945 16.4531L21.332 15.8789L23.082 12.2422C23.2188 11.9414 23.5195 11.75 23.875 11.75C24.2031 11.75 24.5039 11.9414 24.6406 12.2422L26.418 15.8789Z" fill="#F8BC26"/>
<path d="M46.418 15.8789L50.3281 16.4531C50.6562 16.5078 50.9297 16.7266 51.0391 17.0547C51.1484 17.3555 51.0664 17.7109 50.8203 17.9297L47.9766 20.7461L48.6602 24.7383C48.7148 25.0664 48.5781 25.3945 48.3047 25.5859C48.0312 25.8047 47.6758 25.8047 47.375 25.668L43.875 23.7812L40.3477 25.668C40.0742 25.8047 39.6914 25.8047 39.4453 25.5859C39.1719 25.3945 39.0352 25.0664 39.0898 24.7383L39.7461 20.7461L36.9023 17.9297C36.6562 17.7109 36.5742 17.3555 36.6836 17.0547C36.793 16.7266 37.0664 16.5078 37.3945 16.4531L41.332 15.8789L43.082 12.2422C43.2188 11.9414 43.5195 11.75 43.875 11.75C44.2031 11.75 44.5039 11.9414 44.6406 12.2422L46.418 15.8789Z" fill="#F8BC26"/>
<path d="M66.418 15.8789L70.3281 16.4531C70.6562 16.5078 70.9297 16.7266 71.0391 17.0547C71.1484 17.3555 71.0664 17.7109 70.8203 17.9297L67.9766 20.7461L68.6602 24.7383C68.7148 25.0664 68.5781 25.3945 68.3047 25.5859C68.0312 25.8047 67.6758 25.8047 67.375 25.668L63.875 23.7812L60.3477 25.668C60.0742 25.8047 59.6914 25.8047 59.4453 25.5859C59.1719 25.3945 59.0352 25.0664 59.0898 24.7383L59.7461 20.7461L56.9023 17.9297C56.6562 17.7109 56.5742 17.3555 56.6836 17.0547C56.793 16.7266 57.0664 16.5078 57.3945 16.4531L61.332 15.8789L63.082 12.2422C63.2188 11.9414 63.5195 11.75 63.875 11.75C64.2031 11.75 64.5039 11.9414 64.6406 12.2422L66.418 15.8789Z" fill="#F8BC26"/>
<path d="M86.418 15.8789L90.3281 16.4531C90.6562 16.5078 90.9297 16.7266 91.0391 17.0547C91.1484 17.3555 91.0664 17.7109 90.8203 17.9297L87.9766 20.7461L88.6602 24.7383C88.7148 25.0664 88.5781 25.3945 88.3047 25.5859C88.0312 25.8047 87.6758 25.8047 87.375 25.668L83.875 23.7812L80.3477 25.668C80.0742 25.8047 79.6914 25.8047 79.4453 25.5859C79.1719 25.3945 79.0352 25.0664 79.0898 24.7383L79.7461 20.7461L76.9023 17.9297C76.6562 17.7109 76.5742 17.3555 76.6836 17.0547C76.793 16.7266 77.0664 16.5078 77.3945 16.4531L81.332 15.8789L83.082 12.2422C83.2188 11.9414 83.5195 11.75 83.875 11.75C84.2031 11.75 84.5039 11.9414 84.6406 12.2422L86.418 15.8789Z" fill="#F8BC26"/>
<path d="M106.418 15.8789L110.328 16.4531C110.656 16.5078 110.93 16.7266 111.039 17.0547C111.148 17.3555 111.066 17.7109 110.82 17.9297L107.977 20.7461L108.66 24.7383C108.715 25.0664 108.578 25.3945 108.305 25.5859C108.031 25.8047 107.676 25.8047 107.375 25.668L103.875 23.7812L100.348 25.668C100.074 25.8047 99.6914 25.8047 99.4453 25.5859C99.1719 25.3945 99.0352 25.0664 99.0898 24.7383L99.7461 20.7461L96.9023 17.9297C96.6562 17.7109 96.5742 17.3555 96.6836 17.0547C96.793 16.7266 97.0664 16.5078 97.3945 16.4531L101.332 15.8789L103.082 12.2422C103.219 11.9414 103.52 11.75 103.875 11.75C104.203 11.75 104.504 11.9414 104.641 12.2422L106.418 15.8789Z" fill="#F8BC26"/>
<path d="M148.969 15.4737H141.568V17.3205H146.469C147.969 17.3205 149.163 18.5286 149.163 20.0143V22.0694C149.163 23.5552 147.969 24.7633 146.483 24.7633L139.082 24.7771V24.7633L139.29 22.2916H146.067C146.4 22.2916 146.678 22 146.678 21.6667V20.4309C146.678 20.0838 146.4 19.8061 146.067 19.8061H139.082V12.9743H149.163L148.969 15.4737ZM153.04 22.2916V24.7771H150.554V22.2916H153.04ZM154.432 22.0833V15.6681C154.432 14.1823 155.64 12.9743 157.126 12.9743H161.833C163.319 12.9743 164.527 14.1823 164.527 15.6681V22.0833C164.527 23.5691 163.319 24.7771 161.833 24.7771H157.126C155.64 24.7771 154.432 23.5691 154.432 22.0833ZM157.543 22.2916H161.417C161.764 22.2916 162.042 22 162.042 21.6667V16.0847C162.042 15.7514 161.764 15.4737 161.417 15.4737H157.543C157.196 15.4737 156.918 15.7514 156.918 16.0847V21.6667C156.918 22 157.196 22.2916 157.543 22.2916Z" fill="white"/>
</svg>
