<svg width="68" height="68" viewBox="0 0 68 68" fill="none" xmlns="http://www.w3.org/2000/svg">
<rect x="0.702148" width="67.2" height="67.2" rx="8.4" fill="#C81717"/>
<path d="M57.4018 26.25H55.3018C54.7243 26.25 54.2518 26.7225 54.2518 27.3V29.4H52.1518V28.35C52.1518 26.6175 50.7343 25.2 49.0018 25.2H44.5077L43.6993 22.764C43.5523 22.344 43.1532 22.05 42.7018 22.05H40.6018V17.85H42.7018C43.2792 17.85 43.7518 17.3775 43.7518 16.8C43.7518 16.2225 43.2792 15.75 42.7018 15.75H25.9018C25.3243 15.75 24.8518 16.2225 24.8518 16.8C24.8518 17.3775 25.3243 17.85 25.9018 17.85H28.0018V22.05H25.9018C25.4503 22.05 25.0513 22.344 24.9042 22.764L24.6733 23.4675C23.8753 19.6665 20.4942 16.8 16.4518 16.8C11.8213 16.8 8.05176 20.5695 8.05176 25.2C8.05176 29.8305 11.8213 33.6 16.4518 33.6V45.15C16.4518 46.8824 17.8692 48.3 19.6018 48.3H24.0958L24.9042 50.736C25.0513 51.156 25.4503 51.45 25.9018 51.45H42.7018C43.1532 51.45 43.5523 51.156 43.6993 50.736L44.5077 48.3H49.0018C50.7343 48.3 52.1518 46.8824 52.1518 45.15V44.1H54.2518V46.2C54.2518 46.7775 54.7243 47.25 55.3018 47.25H57.4018C59.1343 47.25 60.5518 45.8324 60.5518 44.1V29.4C60.5518 27.6675 59.1343 26.25 57.4018 26.25ZM30.1018 17.85H38.5018V22.05H30.1018V17.85ZM20.6518 46.2H19.6018C19.0243 46.2 18.5518 45.7275 18.5518 45.15V33.327C19.2973 33.1275 20.0008 32.844 20.6518 32.466V46.2ZM20.9562 29.5995C19.8118 30.765 18.2157 31.5 16.4518 31.5C12.9763 31.5 10.1518 28.6755 10.1518 25.2C10.1518 21.7245 12.9763 18.9 16.4518 18.9C19.9273 18.9 22.7518 21.7245 22.7518 25.2C22.7518 26.9115 22.0692 28.455 20.9667 29.589C20.9597 29.589 20.9562 29.5925 20.9562 29.5995ZM45.8518 46.2H43.7518C43.3003 46.2 42.9013 46.494 42.7542 46.914L41.9458 49.35H26.6577L25.8493 46.914C25.7023 46.494 25.3032 46.2 24.8518 46.2H22.7518V30.7335C23.6128 29.7675 24.2427 28.5915 24.5787 27.3H24.8518C25.3032 27.3 25.7023 27.006 25.8493 26.586L26.6577 24.15H41.9458L42.7542 26.586C42.9013 27.006 43.3003 27.3 43.7518 27.3H45.8518V46.2ZM50.0518 45.15C50.0518 45.7275 49.5792 46.2 49.0018 46.2H47.9518V27.3H49.0018C49.5792 27.3 50.0518 27.7725 50.0518 28.35V45.15ZM54.2518 42H52.1518V31.5H54.2518V42ZM58.4518 44.1C58.4518 44.6775 57.9792 45.15 57.4018 45.15H56.3518V28.35H57.4018C57.9792 28.35 58.4518 28.8225 58.4518 29.4V44.1Z" fill="white"/>
<path d="M44.0619 34.7535C44.3028 34.614 44.4787 34.3854 44.551 34.1157C44.6233 33.8471 44.5853 33.5599 44.4464 33.319L42.3464 29.6809C42.2069 29.4399 41.9778 29.2636 41.7086 29.1918C41.4399 29.12 41.1528 29.1569 40.9119 29.2964C40.19 29.7147 39.3276 29.7147 38.6058 29.2964C37.8839 28.8801 37.4527 28.1336 37.4527 27.2999C37.4527 26.7196 36.9826 26.2499 36.4027 26.2499H32.2027C31.6228 26.2499 31.1527 26.7196 31.1527 27.2999C31.1527 28.1336 30.7215 28.8801 29.9997 29.2964C29.2778 29.7137 28.4154 29.7147 27.6936 29.2964C27.4526 29.159 27.166 29.121 26.8968 29.1918C26.6277 29.2636 26.3985 29.4399 26.259 29.6809L24.159 33.319C24.0201 33.5599 23.9822 33.8471 24.0544 34.1157C24.1267 34.3854 24.3026 34.614 24.5436 34.7535C25.2654 35.1698 25.6966 35.9163 25.6966 36.7499C25.6966 37.5836 25.2654 38.3301 24.5436 38.7464C24.3026 38.8858 24.1267 39.1145 24.0544 39.3842C23.9822 39.6528 24.0201 39.9399 24.159 40.1809L26.259 43.819C26.3985 44.0599 26.6277 44.2363 26.8968 44.3081C27.1634 44.3778 27.4516 44.3409 27.6936 44.2035C28.4154 43.7851 29.2778 43.7851 29.9997 44.2035C30.7215 44.6198 31.1527 45.3663 31.1527 46.1999C31.1527 46.7803 31.6228 47.2499 32.2027 47.2499H36.4027C36.9826 47.2499 37.4527 46.7803 37.4527 46.1999C37.4527 45.3663 37.8839 44.6198 38.6058 44.2035C39.3266 43.7851 40.189 43.7851 40.9119 44.2035C41.1539 44.3419 41.4404 44.3788 41.7086 44.3081C41.9778 44.2363 42.2069 44.0599 42.3464 43.819L44.4464 40.1809C44.5853 39.9399 44.6233 39.6528 44.551 39.3842C44.4787 39.1145 44.3028 38.8858 44.0619 38.7464C43.34 38.3301 42.9088 37.5836 42.9088 36.7499C42.9088 35.9163 43.34 35.1698 44.0619 34.7535ZM42.1644 39.9338L40.9908 41.9661C39.8496 41.6298 38.6232 41.7682 37.5558 42.3845C36.4883 43.0007 35.7536 43.9943 35.4763 45.15H33.1291C32.8518 43.9943 32.1171 43.0007 31.0496 42.3845C29.9812 41.7682 28.7548 41.6288 27.6146 41.9661L26.441 39.9338C27.3034 39.1155 27.7966 37.9825 27.7966 36.7499C27.7966 35.5174 27.3034 34.3844 26.441 33.5661L27.6146 31.5338C28.7553 31.8701 29.9827 31.7306 31.0496 31.1154C32.1171 30.4992 32.8518 29.5055 33.1291 28.3499H35.4763C35.7536 29.5055 36.4883 30.4992 37.5558 31.1154C38.6237 31.7306 39.849 31.8701 40.9908 31.5338L42.1644 33.5661C41.302 34.3844 40.8088 35.5174 40.8088 36.7499C40.8088 37.9825 41.302 39.1155 42.1644 39.9338Z" fill="white"/>
<path d="M34.3025 32.55C31.9867 32.55 30.1025 34.4337 30.1025 36.75C30.1025 39.0664 31.9867 40.95 34.3025 40.95C36.6184 40.95 38.5025 39.0664 38.5025 36.75C38.5025 34.4337 36.6184 32.55 34.3025 32.55ZM34.3025 38.85C33.1444 38.85 32.2025 37.9077 32.2025 36.75C32.2025 35.5924 33.1444 34.65 34.3025 34.65C35.4607 34.65 36.4025 35.5924 36.4025 36.75C36.4025 37.9077 35.4607 38.85 34.3025 38.85Z" fill="white"/>
<path d="M20.3453 22.3577C19.9352 21.9475 19.2707 21.9475 18.8605 22.3577L15.4029 25.8153L14.0453 24.4577C13.6352 24.0475 12.9707 24.0475 12.5605 24.4577C12.1504 24.8678 12.1504 25.5323 12.5605 25.9424L14.6605 28.0424C14.8656 28.2475 15.1343 28.35 15.4029 28.35C15.6716 28.35 15.9402 28.2475 16.1453 28.0424L20.3453 23.8424C20.7555 23.4323 20.7555 22.7678 20.3453 22.3577Z" fill="white"/>
</svg>
