<svg width="36" height="26" viewBox="0 0 36 26" fill="none" xmlns="http://www.w3.org/2000/svg">
<path d="M0.479111 11.8312L11.9338 0.456157C12.2424 0.160151 12.6557 -0.003641 13.0848 6.1429e-05C13.5139 0.00376386 13.9243 0.174664 14.2277 0.475952C14.5311 0.77724 14.7032 1.18481 14.7069 1.61088C14.7106 2.03695 14.5457 2.44743 14.2476 2.75391L5.58625 11.355H34.3636C34.7976 11.355 35.2138 11.5262 35.5207 11.831C35.8276 12.1357 36 12.5491 36 12.98C36 13.411 35.8276 13.8243 35.5207 14.1291C35.2138 14.4338 34.7976 14.605 34.3636 14.605H5.58625L14.2476 23.2062C14.4039 23.3561 14.5286 23.5354 14.6143 23.7336C14.7001 23.9319 14.7452 24.1451 14.7471 24.3609C14.749 24.5766 14.7076 24.7906 14.6253 24.9903C14.543 25.19 14.4215 25.3715 14.2679 25.524C14.1142 25.6766 13.9315 25.7973 13.7304 25.879C13.5293 25.9607 13.3139 26.0018 13.0966 25.9999C12.8793 25.9981 12.6646 25.9532 12.4649 25.8681C12.2653 25.7829 12.0847 25.6591 11.9338 25.5039L0.479111 14.1289C0.172337 13.8242 0 13.4109 0 12.98C0 12.5491 0.172337 12.1359 0.479111 11.8312Z" fill="#C81717"/>
</svg>
