<svg width="36" height="26" viewBox="0 0 36 26" fill="none" xmlns="http://www.w3.org/2000/svg">
<path d="M35.5209 11.8312L24.0662 0.456157C23.7576 0.160151 23.3443 -0.003641 22.9152 6.1429e-05C22.4861 0.00376386 22.0757 0.174664 21.7723 0.475952C21.4689 0.77724 21.2968 1.18481 21.2931 1.61088C21.2894 2.03695 21.4543 2.44743 21.7524 2.75391L30.4137 11.355H1.63638C1.20238 11.355 0.786165 11.5262 0.479284 11.831C0.172404 12.1357 0 12.5491 0 12.98C0 13.411 0.172404 13.8243 0.479284 14.1291C0.786165 14.4338 1.20238 14.605 1.63638 14.605H30.4137L21.7524 23.2062C21.5961 23.3561 21.4714 23.5354 21.3857 23.7336C21.2999 23.9319 21.2548 24.1451 21.2529 24.3609C21.251 24.5766 21.2924 24.7906 21.3747 24.9903C21.457 25.19 21.5785 25.3715 21.7321 25.524C21.8858 25.6766 22.0685 25.7973 22.2696 25.879C22.4707 25.9607 22.6861 26.0018 22.9034 25.9999C23.1207 25.9981 23.3354 25.9532 23.5351 25.8681C23.7347 25.7829 23.9153 25.6591 24.0662 25.5039L35.5209 14.1289C35.8277 13.8242 36 13.4109 36 12.98C36 12.5491 35.8277 12.1359 35.5209 11.8312Z" fill="#C81717"/>
</svg>
